<?xml version="1.0" encoding="utf-8"?>
<!-- Generator: Adobe Illustrator 25.2.1, SVG Export Plug-In . SVG Version: 6.00 Build 0)  -->
<svg version="1.1" id="레이어_1" xmlns="http://www.w3.org/2000/svg" xmlns:xlink="http://www.w3.org/1999/xlink" x="0px"
	 y="0px" viewBox="0 0 200 45" style="enable-background:new 0 0 200 45;" xml:space="preserve">
<style type="text/css">
	.st0{opacity:0.79;}
	.st1{fill:url(#SVGID_1_);}
	.st2{opacity:0.5;}
	.st3{fill:url(#SVGID_2_);}
	.st4{fill:url(#SVGID_3_);}
	.st5{fill:url(#SVGID_4_);}
	.st6{fill:url(#SVGID_5_);}
	.st7{fill:url(#SVGID_6_);}
	.st8{fill:url(#SVGID_7_);}
</style>
<g class="st0">
	
		<linearGradient id="SVGID_1_" gradientUnits="userSpaceOnUse" x1="0" y1="23.1733" x2="35.645" y2="23.1733" gradientTransform="matrix(1 0 0 -1 0 46)">
		<stop  offset="0" style="stop-color:#A8C0E1"/>
		<stop  offset="0.2223" style="stop-color:#9EB9DC"/>
		<stop  offset="0.5016" style="stop-color:#7387BD"/>
		<stop  offset="0.7673" style="stop-color:#A75A9C"/>
		<stop  offset="1" style="stop-color:#F0A9B9"/>
	</linearGradient>
	<path class="st1" d="M35.64,23.28c0,0.26-0.01,0.51-0.02,0.77c-0.19,3.53-1.73,6.96-4.26,9.45c-2.7,2.68-6.48,4.2-10.27,4.16
		c-1.89-0.02-3.78-0.4-5.51-1.13c-1.52-0.64-2.92-1.54-4.14-2.65c0.19-0.23,0.31-0.53,0.31-0.85c0-0.74-0.6-1.34-1.35-1.34
		c-0.28,0-0.54,0.09-0.76,0.23c-1.87-2.47-2.92-5.55-2.9-8.64c-0.02-3.74,1.51-7.47,4.18-10.12c1.33-1.33,2.91-2.4,4.65-3.13
		c1.35-0.57,2.8-0.92,4.26-1.06c-2.3,0.39-4.47,1.49-6.12,3.14c-2.13,2.09-3.39,5.04-3.4,8.03c-0.03,2.99,1.18,5.98,3.32,8.11
		c2.12,2.14,5.12,3.38,8.15,3.38c3.03,0,6.02-1.24,8.15-3.38c2.13-2.13,3.35-5.11,3.32-8.1c-0.01-2.99-1.26-5.94-3.4-8.03
		c-0.61-0.61-1.29-1.14-2.02-1.59c1.29,0.66,2.48,1.52,3.52,2.54c2.53,2.48,4.07,5.92,4.26,9.45
		C35.63,22.77,35.64,23.03,35.64,23.28c0-0.26-0.01-0.51-0.02-0.77c-0.09-2.05-0.53-4.08-1.31-5.98c-0.88-2.14-2.19-4.09-3.83-5.73
		c-1.64-1.64-3.59-2.96-5.74-3.86c-2.14-0.9-4.47-1.37-6.81-1.39c-0.79,0-1.58,0.05-2.36,0.15c-0.2-0.61-0.78-1.06-1.46-1.06
		c-0.85,0-1.55,0.69-1.55,1.54c0,0.06,0.01,0.11,0.02,0.16c-0.5,0.15-0.99,0.32-1.48,0.52c-2.17,0.88-4.16,2.18-5.83,3.82
		c-1.66,1.65-3,3.62-3.9,5.78C0.48,18.61,0.01,20.95,0,23.28c0.01,2.34,0.48,4.67,1.38,6.82c0.9,2.16,2.24,4.13,3.9,5.78
		c1.67,1.64,3.66,2.95,5.83,3.82c2.17,0.88,4.5,1.32,6.84,1.31c2.33-0.02,4.66-0.49,6.8-1.39c2.15-0.9,4.1-2.22,5.74-3.86
		c1.64-1.64,2.95-3.6,3.83-5.73c0.79-1.9,1.23-3.93,1.31-5.98C35.64,23.8,35.64,23.54,35.64,23.28 M17.59,12.86
		c0.28,0,0.51-0.21,0.55-0.48c0.17-0.01,0.34-0.02,0.51-0.02c2.15,0,4.27,0.89,5.77,2.4c1.51,1.51,2.38,3.62,2.36,5.74
		c0.01,1.3-0.31,2.59-0.91,3.74c-0.14-0.08-0.3-0.13-0.47-0.13c-0.51,0-0.92,0.41-0.92,0.91c0,0.3,0.15,0.57,0.38,0.73
		c-0.14,0.17-0.29,0.33-0.44,0.49c-1.5,1.52-3.62,2.4-5.77,2.4c-2.15,0.02-4.28-0.85-5.8-2.36c-0.73-0.72-1.31-1.57-1.72-2.51
		c-0.41-1.16-0.63-2.39-0.63-3.62c0-0.29,0.01-0.58,0.03-0.87c0.27-1.72,1.08-3.34,2.32-4.55c1.15-1.14,2.64-1.92,4.23-2.22
		C17.15,12.71,17.35,12.86,17.59,12.86 M29.84,12.15c2.11,2.1,3.3,5.05,3.28,8c-0.01,2.95-1.25,5.86-3.35,7.92
		c-2.09,2.08-5.02,3.28-7.96,3.26c-2.95,0.02-5.88-1.18-7.96-3.26c-1.15-1.12-2.04-2.5-2.61-4c0.4,0.83,0.92,1.59,1.57,2.24
		c1.52,1.54,3.67,2.43,5.84,2.43c2.17,0.02,4.34-0.86,5.88-2.4c0.17-0.16,0.32-0.34,0.47-0.51c0.12,0.06,0.25,0.09,0.39,0.09
		c0.51,0,0.92-0.41,0.92-0.91c0-0.26-0.12-0.5-0.3-0.67c0.63-1.18,0.97-2.51,0.97-3.85c0-2.18-0.91-4.33-2.46-5.85
		c-1.54-1.53-3.71-2.41-5.88-2.4c-0.17,0-0.33,0.01-0.5,0.02c-0.01-0.29-0.26-0.53-0.56-0.53c-0.31,0-0.56,0.25-0.56,0.56
		c0,0.04,0.01,0.07,0.02,0.11c-1.6,0.32-3.11,1.11-4.25,2.27c-1.21,1.2-2,2.79-2.28,4.46c0.22-2.61,1.37-5.14,3.24-7
		c1.66-1.67,3.86-2.79,6.19-3.18c0.38-0.03,0.77-0.06,1.15-0.06c2.22-0.02,4.43,0.5,6.43,1.46C28.37,10.86,29.15,11.45,29.84,12.15
		 M34.28,30.02c-0.89,2.13-2.21,4.07-3.85,5.7c-1.64,1.62-3.61,2.91-5.75,3.77c-2.14,0.87-4.44,1.3-6.74,1.29
		c-2.3-0.02-4.59-0.48-6.71-1.37c-2.12-0.89-4.04-2.19-5.66-3.81c-1.61-1.62-2.91-3.55-3.77-5.65c-0.87-2.1-1.32-4.38-1.32-6.65
		s0.44-4.55,1.31-6.65c0.87-2.11,2.16-4.04,3.77-5.65c1.62-1.61,3.54-2.92,5.66-3.81c0.46-0.2,0.94-0.37,1.42-0.52
		c0.2,0.62,0.78,1.07,1.46,1.07c0.85,0,1.55-0.69,1.55-1.54c0-0.07-0.01-0.14-0.02-0.21c0.76-0.1,1.53-0.17,2.3-0.17
		c2.3-0.01,4.61,0.42,6.74,1.29c2.14,0.86,4.1,2.15,5.75,3.77c1.64,1.62,2.95,3.57,3.85,5.7c0.7,1.67,1.13,3.44,1.29,5.24
		c-0.34-3.28-1.82-6.43-4.17-8.76c-1.35-1.35-2.95-2.44-4.72-3.17c-0.46-0.19-0.93-0.36-1.41-0.51c-0.46-0.15-0.94-0.26-1.41-0.35
		c-0.91-0.18-1.84-0.28-2.77-0.28c-3.84-0.04-7.67,1.51-10.4,4.22c-2.74,2.7-4.34,6.51-4.34,10.35c0,3.19,1.1,6.35,3.04,8.88
		c-0.21,0.24-0.34,0.54-0.34,0.88c0,0.74,0.61,1.34,1.35,1.34c0.3,0,0.57-0.1,0.8-0.26c2.69,2.41,6.29,3.77,9.9,3.74
		c1.92-0.02,3.83-0.4,5.59-1.14c1.76-0.74,3.37-1.83,4.72-3.17c2.35-2.33,3.83-5.49,4.17-8.76C35.41,26.58,34.98,28.35,34.28,30.02
		 M35.62,22.42c0-0.02,0-0.03,0-0.05C35.62,22.39,35.62,22.41,35.62,22.42 M35.62,24.19c0-0.02,0-0.03,0-0.05
		C35.62,24.16,35.62,24.17,35.62,24.19"/>
</g>
<g class="st2">
	
		<linearGradient id="SVGID_2_" gradientUnits="userSpaceOnUse" x1="57.4581" y1="-726.6788" x2="76.6233" y2="-726.6788" gradientTransform="matrix(1 0 0 1 0 749)">
		<stop  offset="0" style="stop-color:#A6BCDB"/>
		<stop  offset="0.2223" style="stop-color:#9BB5D6"/>
		<stop  offset="0.5016" style="stop-color:#6F82B4"/>
		<stop  offset="0.7673" style="stop-color:#9F5794"/>
		<stop  offset="1" style="stop-color:#E8A5B4"/>
	</linearGradient>
	<path class="st3" d="M76.22,16.41l-0.51,0.37c-1.24-1.75-2.41-2.92-3.5-3.5c-1.1-0.58-2.34-0.88-3.72-0.88
		c-3.07,0-5.26,1.53-6.5,4.45c-0.66,1.53-0.95,3.5-0.95,5.84c0,3.94,1.24,6.72,3.72,8.25c1.24,0.73,2.63,1.1,4.23,1.1
		c1.61,0,2.99-0.44,4.16-1.17c0.88-0.66,1.9-1.68,2.99-3.21l0.51,0.29c-2.04,3.65-4.96,5.48-8.83,5.48
		c-3.5-0.07-6.28-1.39-8.18-3.94c-1.46-1.9-2.19-4.23-2.19-6.86c0-2.04,0.44-3.94,1.31-5.69c1.02-1.83,2.34-3.21,4.02-4.23
		c1.68-0.95,3.5-1.46,5.48-1.46c1.61,0,2.99,0.37,4.16,1.1C73.89,13.19,75.13,14.58,76.22,16.41"/>
	
		<linearGradient id="SVGID_3_" gradientUnits="userSpaceOnUse" x1="82.6174" y1="-725.9852" x2="99.1615" y2="-725.9852" gradientTransform="matrix(1 0 0 1 0 749)">
		<stop  offset="0" style="stop-color:#A6BCDB"/>
		<stop  offset="0.2223" style="stop-color:#9BB5D6"/>
		<stop  offset="0.5016" style="stop-color:#6F82B4"/>
		<stop  offset="0.7673" style="stop-color:#9F5794"/>
		<stop  offset="1" style="stop-color:#E8A5B4"/>
	</linearGradient>
	<path class="st4" d="M99.15,24.66c0,1.97-0.15,3.43-0.44,4.45c-0.44,1.46-1.31,2.63-2.63,3.5c-1.24,0.8-2.92,1.24-5.04,1.24
		c-4.16,0-6.79-1.46-7.89-4.45c-0.37-0.88-0.51-2.63-0.51-5.18V12.17h2.99v13c0,2.48,0.37,4.23,1.02,5.33
		c0.88,1.39,2.41,2.04,4.45,2.04c1.24,0,2.41-0.29,3.5-0.8c1.24-0.58,2.04-1.39,2.48-2.48c0.37-0.95,0.58-2.56,0.58-4.75V12.25h1.39
		L99.15,24.66L99.15,24.66z"/>
	
		<linearGradient id="SVGID_4_" gradientUnits="userSpaceOnUse" x1="106.1558" y1="-726.2773" x2="120.292" y2="-726.2773" gradientTransform="matrix(1 0 0 1 0 749)">
		<stop  offset="0" style="stop-color:#A6BCDB"/>
		<stop  offset="0.2223" style="stop-color:#9BB5D6"/>
		<stop  offset="0.5016" style="stop-color:#6F82B4"/>
		<stop  offset="0.7673" style="stop-color:#9F5794"/>
		<stop  offset="1" style="stop-color:#E8A5B4"/>
	</linearGradient>
	<path class="st5" d="M118.86,18.09h-0.95c-0.44-2.26-1.17-3.65-2.26-4.31c-1.1-0.66-2.19-0.95-3.29-0.88
		c-0.95,0-1.83,0.37-2.56,0.95c-0.8,0.66-1.17,1.39-1.17,2.34c0,0.66,0.22,1.24,0.66,1.75c0.66,0.8,2.19,1.83,4.6,3.14
		c1.68,0.88,2.77,1.53,3.21,1.83c1.17,0.8,2.04,1.68,2.56,2.63c0.37,0.8,0.58,1.61,0.58,2.41c0,1.75-0.66,3.21-2.04,4.31
		c-1.31,1.02-2.85,1.53-4.67,1.53c-0.58,0-1.17-0.07-1.68-0.07c-0.66-0.07-1.39-0.29-2.12-0.66s-1.53-1.1-2.26-2.12
		c-0.73-1.1-1.17-2.56-1.17-4.45h0.95c0,1.39,0.22,2.48,0.58,3.14c0.51,0.95,1.24,1.68,2.26,2.19c0.95,0.51,1.97,0.73,3.14,0.73
		c1.17,0,2.12-0.29,2.92-0.88c0.88-0.66,1.31-1.53,1.31-2.63c0-1.17-0.58-2.19-1.75-3.07c-0.73-0.58-1.9-1.31-3.58-2.19
		c-1.68-0.88-2.85-1.68-3.65-2.26c-1.53-1.24-2.34-2.7-2.34-4.38c0-1.61,0.66-2.99,1.9-4.09c1.24-0.88,2.7-1.39,4.38-1.39
		c1.9,0.07,3.29,0.51,4.09,1.1c0.73,0.66,1.31,1.39,1.61,2.12C118.57,15.97,118.79,16.99,118.86,18.09"/>
	
		<linearGradient id="SVGID_5_" gradientUnits="userSpaceOnUse" x1="127.1827" y1="-726.2408" x2="148.5017" y2="-726.2408" gradientTransform="matrix(1 0 0 1 0 749)">
		<stop  offset="0" style="stop-color:#A6BCDB"/>
		<stop  offset="0.2223" style="stop-color:#9BB5D6"/>
		<stop  offset="0.5016" style="stop-color:#6F82B4"/>
		<stop  offset="0.7673" style="stop-color:#9F5794"/>
		<stop  offset="1" style="stop-color:#E8A5B4"/>
	</linearGradient>
	<polygon class="st6" points="127.18,12.17 130.25,12.17 137.92,28.75 145.51,12.17 148.5,12.17 148.5,33.35 145.51,33.35 
		145.51,15.53 137.33,33.35 136.82,33.35 128.57,15.53 128.57,33.35 127.18,33.35 	"/>
	
		<linearGradient id="SVGID_6_" gradientUnits="userSpaceOnUse" x1="154.9631" y1="-726.2043" x2="175.7928" y2="-726.2043" gradientTransform="matrix(1 0 0 1 0 749)">
		<stop  offset="0" style="stop-color:#A6BCDB"/>
		<stop  offset="0.2223" style="stop-color:#9BB5D6"/>
		<stop  offset="0.5016" style="stop-color:#6F82B4"/>
		<stop  offset="0.7673" style="stop-color:#9F5794"/>
		<stop  offset="1" style="stop-color:#E8A5B4"/>
	</linearGradient>
	<path class="st7" d="M165.59,11.73c2.92,0,5.4,1.1,7.37,3.29c1.9,2.12,2.85,4.67,2.85,7.67c0,3.07-0.95,5.69-2.85,7.81
		c-1.97,2.26-4.53,3.36-7.59,3.36s-5.62-1.1-7.59-3.29c-1.9-2.12-2.77-4.75-2.77-7.89c0-3.36,1.17-6.13,3.43-8.25
		C160.4,12.61,162.81,11.73,165.59,11.73 M165.29,12.83c-1.9,0-3.43,0.73-4.6,2.12c-1.46,1.75-2.12,4.31-2.12,7.67
		c0,3.5,0.73,6.13,2.26,7.96c1.17,1.39,2.63,2.12,4.53,2.12c2.48,0,4.31-1.02,5.48-3.14c0.95-1.68,1.39-3.8,1.39-6.5
		c0-2.85-0.44-5.11-1.31-6.86C169.67,14,167.85,12.83,165.29,12.83"/>
	
		<linearGradient id="SVGID_7_" gradientUnits="userSpaceOnUse" x1="180.6261" y1="-726.3503" x2="194.7623" y2="-726.3503" gradientTransform="matrix(1 0 0 1 0 749)">
		<stop  offset="0" style="stop-color:#A6BCDB"/>
		<stop  offset="0.2223" style="stop-color:#9BB5D6"/>
		<stop  offset="0.5016" style="stop-color:#6F82B4"/>
		<stop  offset="0.7673" style="stop-color:#9F5794"/>
		<stop  offset="1" style="stop-color:#E8A5B4"/>
	</linearGradient>
	<path class="st8" d="M193.33,18.09h-0.95c-0.44-2.26-1.17-3.65-2.26-4.31c-1.1-0.66-2.19-0.95-3.29-0.88
		c-0.95,0-1.83,0.37-2.56,0.95c-0.8,0.66-1.17,1.39-1.17,2.34c0,0.66,0.22,1.24,0.66,1.75c0.66,0.8,2.19,1.83,4.6,3.14
		c1.68,0.88,2.77,1.53,3.21,1.83c1.17,0.8,2.04,1.68,2.56,2.63c0.37,0.8,0.58,1.61,0.58,2.41c0,1.75-0.66,3.21-2.04,4.31
		c-1.31,1.02-2.85,1.53-4.67,1.53c-0.58,0-1.17-0.07-1.68-0.07c-0.66-0.07-1.39-0.29-2.19-0.66c-0.73-0.37-1.53-1.1-2.26-2.12
		c-0.73-1.1-1.1-2.56-1.1-4.45h0.95c0,1.39,0.22,2.48,0.58,3.14c0.51,0.95,1.24,1.68,2.26,2.19c0.95,0.51,1.97,0.73,3.14,0.73
		c1.1,0,2.12-0.29,2.92-0.88c0.88-0.66,1.31-1.53,1.31-2.63c0-1.17-0.58-2.19-1.75-3.07c-0.73-0.58-1.9-1.31-3.58-2.19
		c-1.68-0.88-2.85-1.68-3.65-2.26c-1.53-1.24-2.34-2.7-2.34-4.38c0-1.61,0.66-2.99,1.9-4.09c1.17-1.02,2.63-1.53,4.31-1.53
		c1.9,0.07,3.29,0.51,4.09,1.1c0.8,0.66,1.31,1.31,1.68,2.12C193.04,15.97,193.33,16.99,193.33,18.09"/>
</g>
</svg>
