<?xml version="1.0" encoding="utf-8"?>
<!-- Generator: Adobe Illustrator 25.2.1, SVG Export Plug-In . SVG Version: 6.00 Build 0)  -->
<svg version="1.1" id="레이어_1" xmlns="http://www.w3.org/2000/svg" xmlns:xlink="http://www.w3.org/1999/xlink" x="0px"
	 y="0px" viewBox="0 0 136.5 143" style="enable-background:new 0 0 136.5 143;" xml:space="preserve">
<style type="text/css">
	.st0{fill:#FFFFFF;}
</style>
<g>
	<path class="st0" d="M68.1,9.9c-2.3,0-4.6,0.1-6.9,0.4C60.6,7.8,58.3,6,55.7,6C52.5,6,50,8.6,50,11.8c0,0.2,0,0.5,0,0.7
		C23.1,20.3,3.4,45.1,3.4,74.6c0,35.7,29,64.7,64.7,64.7c35.7,0,64.7-29,64.7-64.7C132.8,38.9,103.8,9.9,68.1,9.9z M46,104.3
		c-0.6,0-1.2,0.1-1.8,0.4c-6.3-8.2-10.1-18.5-10.1-29.7c0-19.8,11.7-36.8,28.6-44.5c-12.6,7.4-21,21-21,36.7
		c0,23.5,19,42.5,42.5,42.5s42.5-19,42.5-42.5c0-11-4.2-21-11-28.6c10,9,16.2,21.9,16.2,36.4c0,27-21.9,48.9-48.9,48.9
		c-12.7,0-24.2-4.8-32.9-12.7c0.3-0.6,0.5-1.4,0.5-2.2C50.7,106.4,48.6,104.3,46,104.3z M97.2,28.1c16.6,5.4,28.6,20.8,28.6,39
		c0,22.7-18.7,41.1-41.8,41.1c-23.1,0-41.8-18.4-41.8-41.1c0-22.5,18.4-40.8,41.3-41.1C88.3,26.1,92.9,26.8,97.2,28.1z M69.8,137.2
		c-34.4,0-62.4-27.9-62.4-62.4c0-28,18.4-51.6,43.8-59.5c1.1,1.3,2.7,2.2,4.5,2.2c2.7,0,5-1.9,5.6-4.4c2.8-0.4,5.6-0.6,8.5-0.6
		c29.7,0,54.5,20.7,60.8,48.5c-3.8-13.3-12.9-24.3-24.9-30.6c-6.3-3.7-13.6-5.8-21.4-5.8c-0.3,0-0.7,0-1,0c-0.3,0-0.7,0-1,0
		c-27.8,0-50.3,22.5-50.3,50.3c0,11.7,4,22.4,10.7,31c-0.7,0.8-1.2,1.9-1.2,3.1c0,2.6,2.1,4.7,4.7,4.7c1.1,0,2.1-0.4,2.9-1
		c8.9,7.8,20.5,12.6,33.3,12.6c22.8,0,42.1-15.2,48.3-36.1C124,116.7,99.3,137.2,69.8,137.2z"/>
	<path class="st0" d="M42.4,67.1c0,16.3,13.2,29.5,29.5,29.5c9.4,0,17.7-4.4,23.1-11.2c0.4,0.2,0.8,0.3,1.3,0.3
		c1.8,0,3.3-1.5,3.3-3.3c0-1-0.4-1.9-1.1-2.5c1.9-3.9,2.9-8.2,2.9-12.8c0-16.3-13.2-29.5-29.5-29.5c-0.1,0-0.2,0-0.2,0
		c-0.4-0.7-1.1-1.2-1.9-1.2c-0.9,0-1.7,0.6-2,1.4C53.4,39.9,42.4,52.2,42.4,67.1z M69.8,40.7c1.1,0,2-0.8,2.1-1.9
		c15.4,0.3,27.8,12.9,27.8,28.3c0,4.3-1,8.4-2.7,12c-0.2,0-0.5-0.1-0.7-0.1c-1.8,0-3.3,1.5-3.3,3.3c0,0.8,0.3,1.5,0.8,2.1
		c-5.2,6.7-13.3,11-22.4,11C55.7,95.5,43,82.8,43,67.1C43,52.7,53.8,40.8,67.7,39C67.9,40,68.7,40.7,69.8,40.7z"/>
</g>
</svg>
