<?xml version="1.0" encoding="utf-8"?>
<!-- Generator: Adobe Illustrator 25.2.1, SVG Export Plug-In . SVG Version: 6.00 Build 0)  -->
<svg version="1.1" id="레이어_1" xmlns="http://www.w3.org/2000/svg" xmlns:xlink="http://www.w3.org/1999/xlink" x="0px"
	 y="0px" viewBox="0 0 180 30" style="enable-background:new 0 0 180 30;" xml:space="preserve">
<style type="text/css">
	.st0{fill:#FFFFFF;}
</style>
<g>
	<path class="st0" d="M24.8,7.2l-0.6,0.4C22.5,5.3,21,3.7,19.6,3c-1.4-0.8-3-1.2-4.8-1.2c-4.1,0-6.9,2-8.5,5.9
		c-0.9,2-1.3,4.6-1.3,7.6c0,5.2,1.6,8.8,4.9,10.8c1.6,1,3.5,1.5,5.5,1.5c2.1,0,3.9-0.5,5.4-1.6c1.2-0.8,2.5-2.2,3.9-4.2l0.6,0.4
		c-2.7,4.8-6.5,7.1-11.5,7.1c-4.6,0-8.2-1.7-10.7-5.1c-1.9-2.5-2.8-5.5-2.8-9c0-2.7,0.6-5.2,1.8-7.5c1.2-2.4,3-4.2,5.3-5.6
		c2.2-1.3,4.6-1.9,7.2-1.9c2.1,0,3.9,0.5,5.5,1.4C21.8,2.9,23.4,4.7,24.8,7.2"/>
	<path class="st0" d="M54.9,17.9c0,2.6-0.2,4.5-0.6,5.9c-0.6,1.9-1.8,3.4-3.5,4.6c-1.6,1.1-3.8,1.7-6.6,1.7c-5.4,0-8.9-1.9-10.3-5.8
		c-0.4-1.2-0.7-3.5-0.7-6.8V1.6l3.9,0v17c0,3.3,0.5,5.6,1.4,7c1.2,1.8,3.1,2.7,5.9,2.7c1.6,0,3.2-0.3,4.6-1c1.6-0.8,2.7-1.8,3.3-3.2
		c0.5-1.2,0.8-3.3,0.8-6.3V1.6h1.8L54.9,17.9L54.9,17.9z"/>
	<path class="st0" d="M80.7,9.3h-1.2c-0.5-2.9-1.5-4.8-2.9-5.7c-1.4-0.8-2.9-1.2-4.3-1.1c-1.3,0-2.4,0.4-3.3,1.2
		c-1,0.8-1.6,1.9-1.6,3.1c0,0.8,0.3,1.6,0.9,2.3c0.9,1,2.9,2.4,6.1,4.1c2.2,1.2,3.6,2,4.2,2.4c1.6,1.1,2.7,2.2,3.3,3.4
		c0.5,1,0.8,2.1,0.8,3.2c0,2.3-0.9,4.2-2.7,5.7c-1.7,1.4-3.7,2-6.1,2c-0.8,0-1.5,0-2.2-0.1c-0.9-0.1-1.8-0.4-2.8-0.9
		c-1-0.5-2-1.4-3-2.8c-1-1.4-1.5-3.3-1.5-5.8h1.2c0,1.9,0.3,3.2,0.8,4.1c0.6,1.2,1.6,2.2,3,2.9c1.2,0.7,2.6,1,4.1,1
		c1.5,0,2.7-0.4,3.8-1.1c1.2-0.8,1.7-2,1.7-3.4c0-1.5-0.8-2.8-2.3-4c-0.9-0.7-2.5-1.7-4.7-2.8c-2.2-1.2-3.8-2.2-4.8-2.9
		c-2.1-1.6-3.1-3.5-3.1-5.8c0-2.2,0.8-3.9,2.5-5.3c1.6-1.3,3.5-2,5.7-2c2.5,0.1,4.3,0.6,5.3,1.5c1,0.8,1.8,1.7,2.2,2.8
		C80.3,6.5,80.6,7.9,80.7,9.3"/>
	<polygon class="st0" points="91.6,1.6 95.5,1.6 105.6,23.3 115.6,1.6 119.5,1.6 119.5,29.3 115.6,29.3 115.6,6 104.8,29.3 
		104.2,29.3 93.4,6 93.4,29.3 91.6,29.3 	"/>
	<path class="st0" d="M141.8,1c3.8,0,7.1,1.4,9.7,4.3c2.5,2.8,3.7,6.1,3.7,10c0,4-1.3,7.5-3.8,10.3c-2.6,2.9-5.9,4.4-9.9,4.4
		c-4.1,0-7.4-1.4-9.9-4.3c-2.4-2.8-3.7-6.2-3.7-10.3c0-4.4,1.5-8,4.5-10.8C135.1,2.2,138.2,1,141.8,1 M141.5,2.5
		c-2.5,0-4.5,0.9-6,2.8c-1.9,2.3-2.8,5.6-2.8,10.1c0,4.5,1,8,2.9,10.5c1.5,1.9,3.5,2.8,5.9,2.8c3.3,0,5.6-1.4,7.2-4.1
		c1.2-2.2,1.8-5,1.8-8.5c0-3.7-0.6-6.7-1.7-9C147.2,3.9,144.8,2.5,141.5,2.5"/>
	<path class="st0" d="M178.2,9.3H177c-0.5-2.9-1.5-4.8-2.9-5.7c-1.4-0.8-2.9-1.2-4.3-1.1c-1.3,0-2.4,0.4-3.3,1.2
		c-1,0.8-1.6,1.9-1.6,3.1c0,0.8,0.3,1.6,0.9,2.3c0.9,1,2.9,2.4,6.1,4.1c2.2,1.2,3.6,2,4.2,2.4c1.6,1.1,2.7,2.2,3.3,3.4
		c0.5,1,0.8,2.1,0.8,3.2c0,2.3-0.9,4.2-2.7,5.7c-1.7,1.4-3.7,2-6.1,2c-0.8,0-1.5,0-2.2-0.1c-0.9-0.1-1.8-0.4-2.8-0.9
		c-1-0.5-2-1.4-3-2.8c-1-1.4-1.5-3.3-1.5-5.8h1.2c0,1.9,0.3,3.2,0.8,4.1c0.6,1.2,1.6,2.2,3,2.9c1.2,0.7,2.6,1,4.1,1
		c1.5,0,2.7-0.4,3.8-1.1c1.2-0.8,1.7-2,1.7-3.4c0-1.5-0.8-2.8-2.3-4c-0.9-0.7-2.5-1.7-4.7-2.8c-2.2-1.2-3.8-2.2-4.8-2.9
		c-2.1-1.6-3.1-3.5-3.1-5.8c0-2.2,0.8-3.9,2.5-5.3c1.6-1.3,3.5-2,5.7-2c2.5,0.1,4.3,0.6,5.3,1.5c1,0.8,1.8,1.7,2.2,2.8
		C177.8,6.5,178.1,7.9,178.2,9.3"/>
</g>
</svg>
