<?xml version="1.0" encoding="utf-8"?>
<!-- Generator: Adobe Illustrator 25.2.1, SVG Export Plug-In . SVG Version: 6.00 Build 0)  -->
<svg version="1.1" id="레이어_1" xmlns="http://www.w3.org/2000/svg" xmlns:xlink="http://www.w3.org/1999/xlink" x="0px"
	 y="0px" viewBox="0 0 136.5 143" style="enable-background:new 0 0 136.5 143;" xml:space="preserve">
<style type="text/css">
	.st0{opacity:0.3;}
	.st1{fill:#FCE9DB;}
</style>
<g class="st0">
	<path class="st1" d="M68.1,7.4c-2.4,0-4.8,0.1-7.2,0.4c-0.6-2.6-3-4.5-5.7-4.5c-3.3,0-5.9,2.7-5.9,6c0,0.2,0,0.5,0,0.7
		c-28,8.2-48.5,34-48.5,64.7C0.8,111.8,31,142,68.1,142s67.3-30.2,67.3-67.3C135.4,37.5,105.2,7.4,68.1,7.4z M45.1,105.6
		c-0.6,0-1.2,0.1-1.9,0.4c-6.6-8.5-10.5-19.2-10.5-30.9c0-20.6,12.2-38.3,29.7-46.3c-13,7.7-21.8,21.9-21.8,38.2
		c0,24.4,19.8,44.2,44.2,44.2S129,91.4,129,67c0-11.4-4.4-21.8-11.4-29.7c10.4,9.4,16.8,22.8,16.8,37.9c0,28.1-22.8,50.9-50.9,50.9
		c-13.2,0-25.2-5-34.2-13.2c0.3-0.6,0.5-1.5,0.5-2.3C50,107.8,47.8,105.6,45.1,105.6z M98.4,26.3c17.3,5.6,29.7,21.6,29.7,40.6
		c0,23.6-19.4,42.7-43.5,42.7S41.2,90.5,41.2,66.9c0-23.4,19.1-42.4,43-42.7C89.1,24.2,93.9,25,98.4,26.3z M69.9,139.8
		c-35.8,0-64.9-29-64.9-64.9C5,45.8,24.1,21.2,50.5,13c1.1,1.4,2.8,2.3,4.7,2.3c2.8,0,5.2-2,5.8-4.6c2.9-0.4,5.8-0.6,8.8-0.6
		c30.9,0,56.7,21.5,63.2,50.4c-4-13.8-13.4-25.3-25.9-31.8c-6.6-3.8-14.1-6-22.3-6c-0.3,0-0.7,0-1,0s-0.7,0-1,0
		C54,22.7,30.6,46.1,30.6,75c0,12.2,4.2,23.3,11.1,32.2c-0.7,0.8-1.2,2-1.2,3.2c0,2.7,2.2,4.9,4.9,4.9c1.1,0,2.2-0.4,3-1
		c9.3,8.1,21.3,13.1,34.6,13.1c23.7,0,43.8-15.8,50.2-37.5C126.2,118.5,100.5,139.8,69.9,139.8z"/>
	<path class="st1" d="M41.4,66.9c0,17,13.7,30.7,30.7,30.7c9.8,0,18.4-4.6,24-11.6c0.4,0.2,0.8,0.3,1.4,0.3c1.9,0,3.4-1.6,3.4-3.4
		c0-1-0.4-2-1.1-2.6c2-4.1,3-8.5,3-13.3c0-17-13.7-30.7-30.7-30.7c-0.1,0-0.2,0-0.2,0c-0.4-0.7-1.1-1.2-2-1.2s-1.8,0.6-2.1,1.5
		C52.8,38.6,41.4,51.4,41.4,66.9z M69.9,39.4c1.1,0,2.1-0.8,2.2-2c16,0.3,28.9,13.4,28.9,29.4c0,4.5-1,8.7-2.8,12.5
		c-0.2,0-0.5-0.1-0.7-0.1c-1.9,0-3.4,1.6-3.4,3.4c0,0.8,0.3,1.6,0.8,2.2c-5.4,7-13.8,11.4-23.3,11.4C55.2,96.4,42,83.2,42,66.9
		c0-15,11.2-27.4,25.7-29.2C67.9,38.7,68.7,39.4,69.9,39.4z"/>
</g>
</svg>
