<?xml version="1.0" encoding="utf-8"?>
<!-- Generator: Adobe Illustrator 25.2.1, SVG Export Plug-In . SVG Version: 6.00 Build 0)  -->
<svg version="1.1" id="레이어_1" xmlns="http://www.w3.org/2000/svg" xmlns:xlink="http://www.w3.org/1999/xlink" x="0px"
	 y="0px" viewBox="0 0 188.1 31" style="enable-background:new 0 0 188.1 31;" xml:space="preserve">
<style type="text/css">
	.st0{fill:#472327;}
</style>
<g>
	<path class="st0" d="M25.7,7.1L25,7.6c-1.7-2.4-3.3-4-4.8-4.8c-1.5-0.8-3.2-1.2-5.1-1.2c-4.2,0-7.2,2.1-8.9,6.1
		c-0.9,2.1-1.3,4.8-1.3,8c0,5.4,1.7,9.2,5.1,11.3c1.7,1,3.6,1.5,5.8,1.5c2.2,0,4.1-0.6,5.7-1.6c1.2-0.9,2.6-2.3,4.1-4.4l0.7,0.4
		c-2.8,5-6.8,7.5-12.1,7.5C9.4,30.3,5.6,28.5,3,25c-2-2.6-3-5.8-3-9.4c0-2.8,0.6-5.4,1.8-7.8C3.2,5.3,5,3.4,7.3,2
		c2.3-1.3,4.8-2,7.5-2c2.2,0,4.1,0.5,5.7,1.5C22.5,2.7,24.2,4.6,25.7,7.1"/>
	<path class="st0" d="M57.1,18.4c0,2.7-0.2,4.7-0.6,6.1c-0.6,2-1.8,3.6-3.6,4.8c-1.7,1.1-4,1.7-6.9,1.7c-5.7,0-9.3-2-10.8-6.1
		c-0.5-1.2-0.7-3.6-0.7-7.1V1.3l4.1,0v17.8c0,3.4,0.5,5.8,1.4,7.3c1.2,1.9,3.3,2.8,6.1,2.8c1.7,0,3.3-0.4,4.8-1.1
		c1.7-0.8,2.8-1.9,3.4-3.4c0.5-1.3,0.8-3.5,0.8-6.5V1.4h1.9L57.1,18.4L57.1,18.4z"/>
	<path class="st0" d="M84.1,9.4h-1.3c-0.6-3.1-1.6-5-3.1-5.9c-1.5-0.9-3-1.3-4.5-1.2c-1.3,0-2.5,0.5-3.5,1.3
		c-1.1,0.9-1.6,1.9-1.6,3.2c0,0.9,0.3,1.7,0.9,2.4c0.9,1.1,3,2.5,6.3,4.3c2.3,1.2,3.8,2.1,4.4,2.5c1.6,1.1,2.8,2.3,3.5,3.6
		c0.5,1.1,0.8,2.2,0.8,3.3c0,2.4-0.9,4.4-2.8,5.9c-1.8,1.4-3.9,2.1-6.4,2.1c-0.8,0-1.6-0.1-2.3-0.1c-0.9-0.1-1.9-0.4-2.9-0.9
		s-2.1-1.5-3.1-2.9c-1-1.5-1.6-3.5-1.6-6.1h1.3c0,1.9,0.3,3.4,0.8,4.3c0.7,1.3,1.7,2.3,3.1,3c1.3,0.7,2.7,1,4.3,1
		c1.6,0,2.9-0.4,4-1.2c1.2-0.9,1.8-2.1,1.8-3.6c0-1.6-0.8-3-2.4-4.2c-1-0.8-2.6-1.8-4.9-3c-2.3-1.2-3.9-2.3-5-3.1
		c-2.1-1.7-3.2-3.7-3.2-6c0-2.2,0.9-4.1,2.6-5.6C71,1.3,73,0.6,75.3,0.6c2.6,0.1,4.5,0.7,5.6,1.5C81.9,3,82.7,4,83.1,5
		C83.7,6.5,84,7.9,84.1,9.4"/>
	<polygon class="st0" points="95.5,1.3 99.7,1.3 110.2,24 120.6,1.3 124.7,1.3 124.7,30.3 120.6,30.3 120.6,5.9 109.4,30.3 
		108.7,30.3 97.4,5.9 97.4,30.3 95.5,30.3 	"/>
	<path class="st0" d="M148.1,0.7c4,0,7.4,1.5,10.1,4.5c2.6,2.9,3.9,6.4,3.9,10.5c0,4.2-1.3,7.8-3.9,10.7c-2.7,3.1-6.2,4.6-10.4,4.6
		c-4.2,0-7.7-1.5-10.4-4.5c-2.6-2.9-3.8-6.5-3.8-10.8c0-4.6,1.6-8.4,4.7-11.3C141,1.9,144.3,0.7,148.1,0.7 M147.7,2.2
		c-2.6,0-4.7,1-6.3,2.9c-2,2.4-2.9,5.9-2.9,10.5c0,4.8,1,8.4,3.1,10.9c1.6,1.9,3.6,2.9,6.2,2.9c3.4,0,5.9-1.4,7.5-4.3
		c1.3-2.3,1.9-5.2,1.9-8.9c0-3.9-0.6-7-1.8-9.4C153.7,3.8,151.2,2.2,147.7,2.2"/>
	<path class="st0" d="M186.1,9.4h-1.3c-0.6-3.1-1.6-5-3.1-5.9c-1.5-0.9-3-1.3-4.5-1.2c-1.3,0-2.5,0.5-3.5,1.3
		c-1.1,0.9-1.6,1.9-1.6,3.2c0,0.9,0.3,1.7,0.9,2.4c0.9,1.1,3,2.5,6.3,4.3c2.3,1.2,3.8,2.1,4.4,2.5c1.6,1.1,2.8,2.3,3.5,3.6
		c0.5,1.1,0.8,2.2,0.8,3.3c0,2.4-0.9,4.4-2.8,5.9c-1.8,1.4-3.9,2.1-6.4,2.1c-0.8,0-1.6-0.1-2.3-0.1c-0.9-0.1-1.9-0.4-3-0.9
		c-1-0.5-2.1-1.5-3.1-2.9c-1-1.5-1.5-3.5-1.5-6.1h1.3c0,1.9,0.3,3.4,0.8,4.3c0.7,1.3,1.7,2.3,3.1,3c1.3,0.7,2.7,1,4.3,1
		c1.5,0,2.9-0.4,4-1.2c1.2-0.9,1.8-2.1,1.8-3.6c0-1.6-0.8-3-2.4-4.2c-1-0.8-2.6-1.8-4.9-3c-2.3-1.2-3.9-2.3-5-3.1
		c-2.1-1.7-3.2-3.7-3.2-6c0-2.2,0.9-4.1,2.6-5.6c1.6-1.4,3.6-2.1,5.9-2.1c2.6,0.1,4.5,0.7,5.6,1.5c1.1,0.9,1.8,1.8,2.3,2.9
		C185.7,6.5,186.1,7.9,186.1,9.4"/>
</g>
</svg>
