<?xml version="1.0" encoding="utf-8"?>
<!-- Generator: Adobe Illustrator 25.2.1, SVG Export Plug-In . SVG Version: 6.00 Build 0)  -->
<svg version="1.1" id="레이어_1" xmlns="http://www.w3.org/2000/svg" xmlns:xlink="http://www.w3.org/1999/xlink" x="0px"
	 y="0px" viewBox="0 0 1000 164.8" style="enable-background:new 0 0 1000 164.8;" xml:space="preserve">
<style type="text/css">
	.st0{opacity:0.5;}
	.st1{fill:#FFFFFF;}
</style>
<g class="st0">
	<path class="st1" d="M150.5,38.9l-3.6,2.6c-8.9-12.5-17.2-20.8-25-25s-16.7-6.3-26.6-6.3c-21.9,0-37.5,10.9-46.4,31.8
		c-4.7,10.9-6.8,25-6.8,41.7c0,28.1,8.9,47.9,26.6,58.9c8.9,5.2,18.8,7.8,30.2,7.8s21.4-3.1,29.7-8.3c6.3-4.7,13.6-12,21.4-22.9
		l3.6,2.1c-14.6,26.1-35.4,39.1-63.1,39.1c-25-0.5-44.8-9.9-58.4-28.1c-10.4-13.6-15.6-30.2-15.6-49c0-14.6,3.1-28.1,9.4-40.7
		c7.3-13,16.7-22.9,28.7-30.2c12-6.8,25-10.4,39.1-10.4c11.5,0,21.4,2.6,29.7,7.8C133.8,16,142.7,25.9,150.5,38.9"/>
	<path class="st1" d="M314.1,97.8c0,14.1-1,24.5-3.1,31.8c-3.1,10.4-9.4,18.8-18.8,25c-8.9,5.7-20.8,8.9-36,8.9
		c-29.7,0-48.5-10.4-56.3-31.8c-2.6-6.3-3.6-18.8-3.6-37v-86h21.4v92.8c0,17.7,2.6,30.2,7.3,38c6.3,9.9,17.2,14.6,31.8,14.6
		c8.9,0,17.2-2.1,25-5.7c8.9-4.2,14.6-9.9,17.7-17.7c2.6-6.8,4.2-18.2,4.2-33.9V9.2h9.9L314.1,97.8L314.1,97.8z"/>
	<path class="st1" d="M454.8,50.9h-6.8c-3.1-16.2-8.3-26.1-16.2-30.7c-7.8-4.7-15.6-6.8-23.5-6.3c-6.8,0-13,2.6-18.2,6.8
		c-5.7,4.7-8.3,9.9-8.3,16.7c0,4.7,1.6,8.9,4.7,12.5c4.7,5.7,15.6,13,32.8,22.4c12,6.3,19.8,10.9,22.9,13c8.3,5.7,14.6,12,18.2,18.8
		c2.6,5.7,4.2,11.5,4.2,17.2c0,12.5-4.7,22.9-14.6,30.7c-9.4,7.3-20.3,10.9-33.4,10.9c-4.2,0-8.3-0.5-12-0.5
		c-4.7-0.5-9.9-2.1-15.1-4.7c-5.2-2.6-10.9-7.8-16.2-15.1c-5.2-7.8-8.3-18.2-8.3-31.8h6.8c0,9.9,1.6,17.7,4.2,22.4
		c3.6,6.8,8.9,12,16.2,15.6c6.8,3.6,14.1,5.2,22.4,5.2c8.3,0,15.1-2.1,20.8-6.3c6.3-4.7,9.4-10.9,9.4-18.8c0-8.3-4.2-15.6-12.5-21.9
		c-5.2-4.2-13.6-9.4-25.5-15.6c-12-6.3-20.3-12-26.1-16.2c-10.9-8.9-16.7-19.3-16.7-31.3c0-11.5,4.7-21.4,13.6-29.2
		C386.6,8.7,397,5,409,5c13.6,0.5,23.5,3.6,29.2,7.8c5.2,4.7,9.4,9.9,11.5,15.1C452.8,35.8,454.3,43.1,454.8,50.9"/>
	<polygon class="st1" points="514.3,8.7 536.1,8.7 590.9,127 645.1,8.7 666.4,8.7 666.4,159.8 645.1,159.8 645.1,32.7 586.7,159.8 
		583,159.8 524.2,32.7 524.2,159.8 514.3,159.8 	"/>
	<path class="st1" d="M788.4,5.6c20.8,0,38.6,7.8,52.6,23.5c13.6,15.1,20.3,33.4,20.3,54.7c0,21.9-6.8,40.7-20.3,55.8
		c-14.1,16.2-32.3,24-54.2,24s-40.1-7.8-54.2-23.5c-13.6-15.1-19.8-33.9-19.8-56.3c0-24,8.3-43.8,24.5-58.9
		C751.4,11.8,768.6,5.6,788.4,5.6 M786.3,13.4c-13.6,0-24.5,5.2-32.8,15.1C743,41,738.4,59.2,738.4,83.2c0,25,5.2,43.8,16.2,56.8
		c8.3,9.9,18.8,15.1,32.3,15.1c17.7,0,30.7-7.3,39.1-22.4c6.8-12,9.9-27.1,9.9-46.4c0-20.3-3.1-36.5-9.4-49
		C817.6,21.7,804.5,13.4,786.3,13.4"/>
	<path class="st1" d="M986.4,50.9h-6.8c-3.1-16.2-8.3-26.1-16.2-30.7s-15.6-6.8-23.5-6.3c-6.8,0-13,2.6-18.2,6.8
		c-5.7,4.7-8.3,9.9-8.3,16.7c0,4.7,1.6,8.9,4.7,12.5c4.7,5.7,15.6,13,32.8,22.4c12,6.3,19.8,10.9,22.9,13c8.3,5.7,14.6,12,18.2,18.8
		c2.6,5.7,4.2,11.5,4.2,17.2c0,12.5-4.7,22.9-14.6,30.7c-9.4,7.3-20.3,10.9-33.4,10.9c-4.2,0-8.3-0.5-12-0.5
		c-4.7-0.5-9.9-2.1-15.6-4.7c-5.2-2.6-10.9-7.8-16.2-15.1c-5.2-7.8-7.8-18.2-7.8-31.8h6.8c0,9.9,1.6,17.7,4.2,22.4
		c3.6,6.8,8.9,12,16.2,15.6c6.8,3.6,14.1,5.2,22.4,5.2c7.8,0,15.1-2.1,20.8-6.3c6.3-4.7,9.4-10.9,9.4-18.8c0-8.3-4.2-15.6-12.5-21.9
		c-5.2-4.2-13.6-9.4-25.5-15.6c-12-6.3-20.3-12-26.1-16.2c-10.9-8.9-16.7-19.3-16.7-31.3c0-11.5,4.7-21.4,13.6-29.2
		C917.6,7.6,928.1,4,940,4c13.6,0.5,23.5,3.6,29.2,7.8c5.7,4.7,9.4,9.4,12,15.1C984.3,35.8,986.4,43.1,986.4,50.9"/>
</g>
</svg>
