<?xml version="1.0" encoding="utf-8"?>
<!-- Generator: Adobe Illustrator 25.2.1, SVG Export Plug-In . SVG Version: 6.00 Build 0)  -->
<svg version="1.1" id="레이어_1" xmlns="http://www.w3.org/2000/svg" xmlns:xlink="http://www.w3.org/1999/xlink" x="0px"
	 y="0px" viewBox="0 0 60 105" style="enable-background:new 0 0 60 105;" xml:space="preserve">
<style type="text/css">
	.st0{opacity:0.3;}
	.st1{fill:#FFFFFF;}
	.st2{opacity:0.5;}
</style>
<g id="그룹_1" transform="translate(-1115.322 -975.322)" class="st0">
	<path id="사각형_21" class="st1" d="M1173,976.9L1173,976.9c2.1,2.1,2.1,5.6,0,7.8l-23.3,23.3c-2.1,2.1-5.6,2.1-7.8,0l0,0
		c-2.1-2.1-2.1-5.6,0-7.8l23.3-23.3C1167.3,974.8,1170.8,974.8,1173,976.9z"/>
	<path id="사각형_23" class="st1" d="M1148.8,1008L1148.8,1008c-2.1,2.1-5.6,2.1-7.8,0l-23.3-23.3c-2.1-2.1-2.1-5.6,0-7.8l0,0
		c2.1-2.1,5.6-2.1,7.8,0l23.3,23.3C1150.9,1002.4,1150.9,1005.9,1148.8,1008z"/>
</g>
<g id="그룹_2" transform="translate(-1115.322 -975.322)" class="st2">
	<path id="사각형_24" class="st1" d="M1173,1012.1L1173,1012.1c2.1,2.1,2.1,5.6,0,7.8l-23.3,23.3c-2.1,2.1-5.6,2.1-7.8,0l0,0
		c-2.1-2.1-2.1-5.6,0-7.8l23.3-23.3C1167.3,1010,1170.8,1010,1173,1012.1z"/>
	<path id="사각형_25" class="st1" d="M1148.8,1043.2L1148.8,1043.2c-2.1,2.1-5.6,2.1-7.8,0l-23.3-23.3c-2.1-2.1-2.1-5.6,0-7.8
		l0,0c2.1-2.1,5.6-2.1,7.8,0l23.3,23.3C1150.9,1037.6,1150.9,1041.1,1148.8,1043.2z"/>
</g>
<g id="그룹_3" transform="translate(-1115.322 -972.322)">
	<path id="사각형_26" class="st1" d="M1173,1044.3L1173,1044.3c2.1,2.1,2.1,5.6,0,7.8l-23.3,23.3c-2.1,2.1-5.6,2.1-7.8,0l0,0
		c-2.1-2.1-2.1-5.6,0-7.8l23.3-23.3C1167.3,1042.1,1170.8,1042.1,1173,1044.3z"/>
	<path id="사각형_27" class="st1" d="M1148.8,1075.4L1148.8,1075.4c-2.1,2.1-5.6,2.1-7.8,0l-23.3-23.3c-2.1-2.1-2.1-5.6,0-7.8
		l0,0c2.1-2.1,5.6-2.1,7.8,0l23.3,23.3C1150.9,1069.8,1150.9,1073.2,1148.8,1075.4z"/>
</g>
</svg>
