<?xml version="1.0" encoding="utf-8"?>
<!-- Generator: Adobe Illustrator 25.2.1, SVG Export Plug-In . SVG Version: 6.00 Build 0)  -->
<svg version="1.1" id="레이어_1" xmlns="http://www.w3.org/2000/svg" xmlns:xlink="http://www.w3.org/1999/xlink" x="0px"
	 y="0px" viewBox="0 0 480 480" style="enable-background:new 0 0 480 480;" xml:space="preserve">
<style type="text/css">
	.st0{fill:#482428;}
</style>
<path class="st0" d="M386.1,200h24c4.4,0,8-3.6,8-8v-24c0-4.4-3.6-8-8-8s-8,3.6-8,8v16h-16c-4.4,0-8,3.6-8,8S381.6,200,386.1,200z"
	/>
<path class="st0" d="M197.9,168c17.7,0,32-14.3,32-32s-14.3-32-32-32c-17.7,0-32,14.3-32,32S180.2,168,197.9,168z M197.9,120
	c8.8,0,16,7.2,16,16s-7.2,16-16,16c-8.8,0-16-7.2-16-16S189,120,197.9,120z"/>
<path class="st0" d="M23.1,165.3c3.4,1.8,7.1,2.7,11,2.7c10.2,0,19.2-6.5,22.6-16.1l62.9-1l-11,9.1c-3,2.5-3.8,6.8-1.8,10.2
	l14.9,25.8l0.3,36H82.1c-0.5,0-0.9,0.1-1.4,0.3c-3.8-11.1-15-17.9-26.6-16C42.5,218.2,34,228.3,34,240s8.5,21.8,20.1,23.7
	c11.6,1.9,22.9-4.8,26.6-16c0.5,0.1,0.9,0.2,1.4,0.3h48c2.1,0,4.2-0.9,5.7-2.4c1.5-1.5,2.3-3.6,2.3-5.7l-0.4-40.5l25.6-9.6
	c1.7,1.1,3.5,2.2,5.3,3.1l5.4,32.4c0.6,3.9,4,6.7,7.9,6.7h4.2v40h-24c-4.4,0-8,3.6-8,8v116.7l-69.7,69.7c-2.3,2.3-3,5.7-1.7,8.7
	s4.2,4.9,7.4,4.9h256c3.2,0,6.2-1.9,7.4-4.9c1.2-3,0.6-6.4-1.7-8.7l-53.7-53.7v-42.5l17.9-29.8c30.2,18.2,48.5,27.6,54.1,27.6h48
	c4.4,0,8-3.6,8-8v-44.7l13.6-13.6c1.5-1.5,2.3-3.5,2.4-5.7v-24h11.7c5.4,0,10.5-2.7,13.4-7.3c2.9-4.5,3.4-10.3,1.2-15.2l-24.9-56
	c9.4-11.2,14.6-25.5,14.6-40.1c0.2-52.9-29.8-101.4-77.2-124.9l-23.2-11.6c-3.5-1.8-7.8-0.7-10.1,2.5l-3.4,4.6h-54.2V8
	c0-4.4-3.6-8-8-8h-80c-4.4,0-8,3.6-8,8v32h-12.2c-3.9,0-7.3,2.8-7.9,6.7l-5.4,32.4c-1.8,0.9-3.6,2-5.3,3.1l-30.8-11.5
	c-3.7-1.4-7.8,0.1-9.7,3.5l-8.1,14c-0.2,0-0.4-0.1-0.6-0.1h-48V62.5c11-3.9,17.6-15.2,15.7-26.7c-2-11.5-12-19.9-23.7-19.9
	c-11.7,0-21.7,8.4-23.7,19.9c-2,11.5,4.6,22.8,15.7,26.7V96c0,4.4,3.6,8,8,8h47.9c-0.7,2.9,0.3,6.1,2.6,8l25.4,20.9
	c0,0.6,0,1.2,0,1.8l-77.3,1.2C53,125.7,43,119.2,32.3,120c-10.7,0.8-19.7,8.6-21.8,19.2C8.3,149.8,13.5,160.5,23.1,165.3z M58.1,248
	c-4.4,0-8-3.6-8-8s3.6-8,8-8s8,3.6,8,8S62.5,248,58.1,248z M58.1,32c4.4,0,8,3.6,8,8s-3.6,8-8,8s-8-3.6-8-8S53.6,32,58.1,32z
	 M202.1,232h11.8c3.9,0,7.2-2.8,7.9-6.7l5.4-32.4c1.8-0.9,3.5-2,5.3-3.1l30.8,11.5c3.7,1.4,7.8-0.1,9.7-3.5l3.4-5.9h37.7
	c0.6,0,1.2-0.2,1.7-0.4l14.3,19V224h-32v16h18.5l-21.4,8.6c-3,1.2-5,4.2-5,7.4v16h-88V232z M289,101.9l-3.4-5.9h20.4v32h-38.3
	l19.4-16C290.2,109.5,290.9,105.2,289,101.9z M306.1,144v32h-20.4l3.4-5.9c1.9-3.4,1.2-7.7-1.8-10.1l-19.4-16H306.1z M252.4,341.7
	l29.7,29.7v4.7h-48v-88h16v48C250.1,338.1,250.9,340.2,252.4,341.7z M201.7,448h0.4v-0.4l30-34.3c1.3-1.5,2-3.3,2-5.3v-16h16v72
	h-62.4L201.7,448z M109.4,464l58.3-58.3c1.5-1.5,2.3-3.5,2.3-5.7V288h48v117l-16,18.3V384h-16v57.6L166.4,464H109.4z M326.8,464
	h-60.7v-72h16v24c0,2.1,0.8,4.2,2.3,5.7L326.8,464z M288.5,355.1l-22.4-22.4V288h24v32c0,2.8,1.4,5.3,3.8,6.8c3,1.9,5.7,3.5,8.5,5.3
	L288.5,355.1z M356.6,34.2l17.1,8.6c42,20.8,68.5,63.7,68.4,110.6c0,12.4-4.9,24.2-13.7,33c-2.3,2.3-3,5.9-1.7,8.9l27,60.8h-19.7
	c-4.4,0-8,3.6-8,8v24h-1.4c-12.4,0-24.2-4.9-33-13.7c-3.1-3-8.1-3-11.2,0.1s-3.1,8.1-0.1,11.2c9.5,9.5,21.8,15.7,35.1,17.6l-3.1,3.1
	c-1.5,1.5-2.3,3.5-2.3,5.7v40l-39.2,0c-18.5-8.5-36.3-18.4-53.4-29.5l0,0h-0.1c-3.8-2.3-7.5-4.6-11.3-6.9v-54.2l35-14
	c3-1.2,5-4.2,5-7.4v-32c0-1.7-0.6-3.4-1.6-4.8l-22.4-29.9V82.6L356.6,34.2z M210.1,16h64v16c0,4.4,3.6,8,8,8h50.7l-25.2,35.4
	c-1,1.4-1.5,3-1.5,4.6h-29.7l-3.4-5.9c-2-3.4-6.1-4.9-9.7-3.5l-30.8,11.5c-1.7-1.1-3.5-2.2-5.3-3.1l-5.4-32.4
	c-0.6-3.9-4-6.7-7.9-6.7h-3.8V16z M124,104l9.2-16l28.4,10.6c2.6,1,5.4,0.5,7.6-1.1c3-2.3,6.3-4.2,9.7-5.7c2.5-1.1,4.3-3.4,4.7-6
	l5-29.8h18.4l5,29.9c0.4,2.7,2.2,5,4.7,6c3.5,1.5,6.7,3.4,9.7,5.7c2.2,1.6,5,2,7.6,1.1L262.5,88l9.2,16l-23.4,19.3
	c-2.1,1.7-3.2,4.4-2.9,7.1c0.5,3.7,0.5,7.5,0,11.2c-0.3,2.7,0.8,5.4,2.9,7.1l23.4,19.2l-9.2,16l-28.4-10.6c-2.5-1-5.4-0.5-7.6,1.1
	c-3,2.3-6.3,4.2-9.7,5.7c-2.5,1.1-4.3,3.4-4.7,6l-5,29.8h-18.5l-5-29.9c-0.4-2.7-2.2-5-4.7-6c-3.5-1.5-6.7-3.4-9.7-5.7
	c-2.2-1.6-5-2-7.6-1.1L133.2,184l-9.2-16l23.4-19.3c0.1-0.1,0.3-0.3,0.4-0.4c0.2-0.1,0.3-0.3,0.4-0.5c0.6-0.6,1.1-1.4,1.4-2.2
	l0.1-0.1c0.3-0.9,0.5-1.8,0.5-2.8c0-0.1,0.1-0.2,0.1-0.3c0-0.1,0-0.2-0.1-0.3s0-0.4,0-0.6c-0.5-3.7-0.5-7.5,0-11.2
	c0.3-2.7-0.8-5.4-2.9-7.1L124,104z M27,140.3c1-1.9,2.6-3.4,4.7-4c4.1-1,8.3,1.3,9.6,5.3c1.3,4-0.8,8.4-4.7,9.9
	c-4.2,1.4-8.7-1-10.1-5.2C25.8,144.4,26,142.2,27,140.3z"/>
<path class="st0" d="M186.1,320h16v16h-16V320z"/>
<path class="st0" d="M186.1,352h16v16h-16V352z"/>
<path class="st0" d="M234.1,224h16v16h-16V224z"/>
<path class="st0" d="M266.1,224h16v16h-16V224z"/>
<path class="st0" d="M338.1,80h16v32h-16V80z"/>
<path class="st0" d="M338.1,128h16v16h-16V128z"/>
<path class="st0" d="M338.1,160h16v16h-16V160z"/>
</svg>
