<?xml version="1.0" encoding="utf-8"?>
<!-- Generator: Adobe Illustrator 25.2.1, SVG Export Plug-In . SVG Version: 6.00 Build 0)  -->
<svg version="1.1" id="Layer_1_1_" xmlns="http://www.w3.org/2000/svg" xmlns:xlink="http://www.w3.org/1999/xlink" x="0px" y="0px"
	 viewBox="0 0 512 512" style="enable-background:new 0 0 512 512;" xml:space="preserve">
<style type="text/css">
	.st0{fill:#482428;}
</style>
<path class="st0" d="M512,153.6C512,68.9,443.1,0,358.4,0S204.8,68.9,204.8,153.6c0,13,1.8,25.6,4.9,37.7l-15.2,10.1
	c-4.3-3.2-9.5-5.2-15.3-5.2s-11,2-15.3,5.2l-36.8-24.6c0.5-2,0.9-4.1,0.9-6.2c0-14.1-11.5-25.6-25.6-25.6s-25.6,11.5-25.6,25.6
	c0,2.2,0.3,4.2,0.9,6.2l-36.8,24.6c-4.3-3.2-9.5-5.2-15.3-5.2C11.5,196.3,0,207.8,0,221.9c0,14.1,11.5,25.6,25.6,25.6
	s25.6-11.5,25.6-25.6c0-2.2-0.3-4.2-0.9-6.2l36.8-24.6c4.3,3.2,9.5,5.2,15.3,5.2s11-2,15.3-5.2l36.8,24.6c-0.5,2-0.9,4.1-0.9,6.2
	c0,14.1,11.5,25.6,25.6,25.6c14.1,0,25.6-11.5,25.6-25.6c0-2.2-0.3-4.2-0.9-6.2l11.1-7.4c19.1,50,63.7,87.5,117.8,96.6v36.4h-8.5
	c-4.7,0-8.5,3.8-8.5,8.5v119.5c0,23.5,19.1,42.7,42.7,42.7s42.7-19.1,42.7-42.7V349.9c0-4.7-3.8-8.5-8.5-8.5H384v-36.4
	C456.5,292.6,512,229.6,512,153.6L512,153.6z M25.6,230.4c-4.7,0-8.5-3.8-8.5-8.5s3.8-8.5,8.5-8.5s8.5,3.8,8.5,8.5
	S30.3,230.4,25.6,230.4z M102.4,179.2c-4.7,0-8.5-3.8-8.5-8.5s3.8-8.5,8.5-8.5c4.7,0,8.5,3.8,8.5,8.5S107.1,179.2,102.4,179.2z
	 M179.2,230.4c-4.7,0-8.5-3.8-8.5-8.5s3.8-8.5,8.5-8.5s8.5,3.8,8.5,8.5S183.9,230.4,179.2,230.4z M229.6,198.5l11.1-7.4
	c4.3,3.2,9.5,5.2,15.3,5.2c5.7,0,11-2,15.3-5.2l36.8,24.6c-0.5,2-0.9,4.1-0.9,6.2c0,14.1,11.5,25.6,25.6,25.6
	c14.1,0,25.6-11.5,25.6-25.6c0-3.9-1-7.6-2.6-11l70.8-70.8v39.1h17.1v-59.7c0-4.7-3.8-8.5-8.5-8.5h-59.7V128h39.1l-70.8,70.8
	c-3.3-1.6-7-2.6-11-2.6c-5.7,0-11,2-15.3,5.2l-36.8-24.6c0.5-2,0.9-4.1,0.9-6.2c0-14.1-11.5-25.6-25.6-25.6
	c-14.1,0-25.6,11.5-25.6,25.6c0,2.2,0.3,4.2,0.9,6.2l-6.6,4.4c-1.8-8.9-2.8-18.2-2.8-27.7c0-75.3,61.3-136.5,136.5-136.5
	s136.5,61.3,136.5,136.5s-61.3,136.5-136.5,136.5C298.9,290.1,248.2,251.8,229.6,198.5z M247.5,170.7c0-4.7,3.8-8.5,8.5-8.5
	c4.7,0,8.5,3.8,8.5,8.5s-3.8,8.5-8.5,8.5S247.5,175.4,247.5,170.7z M341.3,221.9c0,4.7-3.8,8.5-8.5,8.5c-4.7,0-8.5-3.8-8.5-8.5
	s3.8-8.5,8.5-8.5C337.5,213.3,341.3,217.2,341.3,221.9z M384,469.3c0,14.1-11.5,25.6-25.6,25.6s-25.6-11.5-25.6-25.6V358.4H384
	V469.3z M366.9,341.3h-17.1v-34.6c2.8,0.2,5.6,0.4,8.5,0.4s5.7-0.3,8.5-0.4V341.3z"/>
<path class="st0" d="M267.5,200.9l-15.1,7.9c9.8,18.8,24.4,34.6,42.3,45.9l9.1-14.4C288.5,230.6,275.9,216.9,267.5,200.9z"/>
<path class="st0" d="M477.9,153.6c0-65.9-53.6-119.5-119.5-119.5c-55.7,0-103.5,37.8-116.3,91.9l16.6,3.9
	c10.9-46.4,51.9-78.8,99.7-78.8c56.5,0,102.4,45.9,102.4,102.4S414.9,256,358.4,256c-5.3,0-10.6-0.4-15.8-1.2l-2.6,16.9
	c6.1,0.9,12.2,1.4,18.4,1.4C424.3,273.1,477.9,219.5,477.9,153.6z"/>
<path class="st0" d="M0,0h51.2v17.1H0V0z"/>
<path class="st0" d="M68.3,0h119.5v17.1H68.3V0z"/>
<path class="st0" d="M0,34.1h110.9v17.1H0V34.1z"/>
<path class="st0" d="M128,34.1h59.7v17.1H128V34.1z"/>
<path class="st0" d="M0,68.3h17.1v17.1H0V68.3z"/>
<path class="st0" d="M34.1,68.3h51.2v17.1H34.1V68.3z"/>
<path class="st0" d="M102.4,68.3h85.3v17.1h-85.3V68.3z"/>
<path class="st0" d="M0,102.4h59.7v17.1H0V102.4z"/>
<path class="st0" d="M76.8,102.4h110.9v17.1H76.8V102.4z"/>
<path class="st0" d="M290.1,409.6c0-4.7-3.8-8.5-8.5-8.5h-42.7v-34.1c0-4.7-3.8-8.5-8.5-8.5h-42.7v-34.1c0-4.7-3.8-8.5-8.5-8.5
	h-42.7v-34.1c0-4.7-3.8-8.5-8.5-8.5H76.8c-4.7,0-8.5,3.8-8.5,8.5v76.8H25.6c-4.7,0-8.5,3.8-8.5,8.5v128H0V512h307.2v-17.1h-17.1
	V409.6z M34.1,375.5h34.1v119.5H34.1V375.5z M85.3,366.9v-76.8h34.1v34.1v170.7H85.3V366.9z M136.5,332.8h34.1v34.1v128h-34.1V332.8
	z M187.7,375.5h34.1v34.1v85.3h-34.1V375.5z M238.9,494.9v-76.8h34.1v76.8H238.9z"/>
</svg>
