<?xml version="1.0" encoding="utf-8"?>
<!-- Generator: Adobe Illustrator 25.2.1, SVG Export Plug-In . SVG Version: 6.00 Build 0)  -->
<svg version="1.1" id="레이어_1" xmlns="http://www.w3.org/2000/svg" xmlns:xlink="http://www.w3.org/1999/xlink" x="0px"
	 y="0px" viewBox="0 0 300 400" style="enable-background:new 0 0 300 400;" xml:space="preserve">
<style type="text/css">
	.st0{fill:#FFFFFF;stroke:#000000;stroke-miterlimit:10;}
	.st1{fill:none;stroke:#000000;stroke-miterlimit:10;}
	.st2{fill:#482327;}
</style>
<rect y="1" class="st0" width="300" height="300"/>
<line class="st1" x1="150.4" y1="277.8" x2="150.4" y2="377.8"/>
<circle class="st1" cx="150.4" cy="381.4" r="3"/>
<path class="st2" d="M185,140.4h5.7c1.1,0,1.9-0.9,1.9-1.9v-5.7c0-1.1-0.9-1.9-1.9-1.9s-1.9,0.9-1.9,1.9v3.8H185
	c-1.1,0-1.9,0.9-1.9,1.9S183.9,140.4,185,140.4z"/>
<path class="st2" d="M140,132.8c4.2,0,7.7-3.4,7.7-7.7c0-4.2-3.4-7.7-7.7-7.7s-7.7,3.4-7.7,7.7C132.3,129.4,135.7,132.8,140,132.8z
	 M140,121.3c2.1,0,3.8,1.7,3.8,3.8s-1.7,3.8-3.8,3.8s-3.8-1.7-3.8-3.8S137.8,121.3,140,121.3z"/>
<path class="st2" d="M98.1,132.1c0.8,0.4,1.7,0.6,2.6,0.6c2.4,0,4.6-1.6,5.4-3.9l15-0.2l-2.6,2.2c-0.7,0.6-0.9,1.6-0.4,2.4l3.6,6.2
	l0.1,8.6h-9.5c-0.1,0-0.2,0-0.3,0.1c-0.9-2.7-3.6-4.3-6.4-3.8s-4.8,2.9-4.8,5.7s2,5.2,4.8,5.7s5.5-1.1,6.4-3.8c0.1,0,0.2,0,0.3,0.1
	h11.5c0.5,0,1-0.2,1.4-0.6s0.6-0.9,0.6-1.4l-0.1-9.7l6.1-2.3c0.4,0.3,0.8,0.5,1.3,0.7l1.3,7.8c0.1,0.9,1,1.6,1.9,1.6h1v9.6h-5.7
	c-1.1,0-1.9,0.9-1.9,1.9v27.9L113,204.2c-0.6,0.6-0.7,1.4-0.4,2.1c0.3,0.7,1,1.2,1.8,1.2h61.2c0.8,0,1.5-0.5,1.8-1.2
	s0.1-1.5-0.4-2.1l-12.8-12.8v-10.2l4.3-7.1c7.2,4.4,11.6,6.6,12.9,6.6h11.5c1.1,0,1.9-0.9,1.9-1.9V168l3.3-3.3
	c0.4-0.4,0.6-0.8,0.6-1.4v-5.7h2.8c1.3,0,2.5-0.6,3.2-1.7c0.7-1.1,0.8-2.5,0.3-3.6l-6-13.4c2.2-2.7,3.5-6.1,3.5-9.6
	c0-12.7-7.1-24.3-18.5-29.9l-5.6-2.8c-0.8-0.4-1.9-0.2-2.4,0.6l-0.8,1.1h-13v-3.8c0-1.1-0.9-1.9-1.9-1.9h-19.1
	c-1.1,0-1.9,0.9-1.9,1.9v7.7h-2.9c-0.9,0-1.7,0.7-1.9,1.6l-1.3,7.8c-0.4,0.2-0.9,0.5-1.3,0.7l-7.4-2.8c-0.9-0.3-1.9,0-2.3,0.8
	l-1.9,3.3h-0.1h-11.5v-6.1c2.6-0.9,4.2-3.6,3.8-6.4c-0.5-2.8-2.9-4.8-5.7-4.8s-5.2,2-5.7,4.8s1.1,5.5,3.8,6.4v8
	c0,1.1,0.9,1.9,1.9,1.9h11.5c-0.2,0.7,0.1,1.5,0.6,1.9l6.1,5c0,0.1,0,0.3,0,0.4l-18.5,0.3c-0.9-2.4-3.3-4-5.8-3.8
	c-2.6,0.2-4.7,2.1-5.2,4.6C94.6,128.4,95.8,131,98.1,132.1z M106.5,151.9c-1.1,0-1.9-0.9-1.9-1.9s0.9-1.9,1.9-1.9
	c1.1,0,1.9,0.9,1.9,1.9S107.6,151.9,106.5,151.9z M106.5,100.2c1.1,0,1.9,0.9,1.9,1.9c0,1.1-0.9,1.9-1.9,1.9c-1.1,0-1.9-0.9-1.9-1.9
	S105.4,100.2,106.5,100.2z M141,148.1h2.8c0.9,0,1.7-0.7,1.9-1.6l1.3-7.8c0.4-0.2,0.8-0.5,1.3-0.7l7.4,2.8c0.9,0.3,1.9,0,2.3-0.8
	l0.8-1.4h9c0.1,0,0.3,0,0.4-0.1l3.4,4.5v3.2h-7.7v3.8h4.4l-5.1,2.1c-0.7,0.3-1.2,1-1.2,1.8v3.8h-21V148.1L141,148.1z M161.8,117
	l-0.8-1.4h4.9v7.7h-9.2l4.6-3.8C162,118.8,162.2,117.7,161.8,117z M165.8,127v7.7H161l0.8-1.4c0.5-0.8,0.3-1.8-0.4-2.4l-4.6-3.8h9
	V127z M153,174.3l7.1,7.1v1.1h-11.5v-21.1h3.8V173C152.4,173.5,152.6,174,153,174.3z M140.9,199.8L140.9,199.8L140.9,199.8l7.3-8.3
	c0.3-0.4,0.5-0.8,0.5-1.3v-3.8h3.8v17.2h-14.9L140.9,199.8z M118.8,203.6l13.9-13.9c0.4-0.4,0.6-0.8,0.6-1.4v-26.8h11.5v28l-3.8,4.4
	v-9.4h-3.8v13.8l-4.7,5.4h-13.7V203.6z M170.8,203.6h-14.5v-17.2h3.8v5.7c0,0.5,0.2,1,0.6,1.4L170.8,203.6z M161.6,177.5l-5.4-5.4
	v-10.7h5.7v7.7c0,0.7,0.3,1.3,0.9,1.6c0.7,0.5,1.4,0.8,2,1.3L161.6,177.5z M177.9,100.8l4.1,2.1c10,5,16.4,15.2,16.4,26.5
	c0,3-1.2,5.8-3.3,7.9c-0.6,0.6-0.7,1.4-0.4,2.1l6.5,14.5h-4.7c-1.1,0-1.9,0.9-1.9,1.9v5.7h-0.3c-3,0-5.8-1.2-7.9-3.3
	c-0.7-0.7-1.9-0.7-2.7,0c-0.7,0.7-0.7,1.9,0,2.7c2.3,2.3,5.2,3.8,8.4,4.2l-0.7,0.7c-0.4,0.4-0.6,0.8-0.6,1.4v9.6h-9.4
	c-4.4-2-8.7-4.4-12.8-7.1l0,0l0,0c-0.9-0.6-1.8-1.1-2.7-1.7v-13l8.4-3.3c0.7-0.3,1.2-1,1.2-1.8v-7.7c0-0.4-0.1-0.8-0.4-1.1l-5.4-7.2
	v-21.7L177.9,100.8z M142.9,96.4h15.3v3.8c0,1.1,0.9,1.9,1.9,1.9h12.1l-6,8.5c-0.2,0.3-0.4,0.7-0.4,1.1h-7.1l-0.8-1.4
	c-0.5-0.8-1.5-1.2-2.3-0.8l-7.4,2.8c-0.4-0.3-0.8-0.5-1.3-0.7l-1.3-7.8c-0.1-0.9-1-1.6-1.9-1.6h-0.9L142.9,96.4L142.9,96.4z
	 M122.3,117.5l2.2-3.8l6.8,2.5c0.6,0.2,1.3,0.1,1.8-0.3c0.7-0.6,1.5-1,2.3-1.4c0.6-0.3,1-0.8,1.1-1.4l1.2-7.1h4.4l1.2,7.2
	c0.1,0.6,0.5,1.2,1.1,1.4c0.8,0.4,1.6,0.8,2.3,1.4c0.5,0.4,1.2,0.5,1.8,0.3l6.8-2.6l2.2,3.8l-5.6,4.6c-0.5,0.4-0.8,1.1-0.7,1.7
	c0.1,0.9,0.1,1.8,0,2.7c-0.1,0.6,0.2,1.3,0.7,1.7l5.6,4.6l-2.2,3.8l-6.8-2.5c-0.6-0.2-1.3-0.1-1.8,0.3c-0.7,0.6-1.5,1-2.3,1.4
	c-0.6,0.3-1,0.8-1.1,1.4l-1.2,7.1h-4.4l-1.2-7.2c-0.1-0.6-0.5-1.2-1.1-1.4c-0.8-0.4-1.6-0.8-2.3-1.4c-0.5-0.4-1.2-0.5-1.8-0.3
	l-6.8,2.6l-2.2-3.8l5.6-4.6l0.1-0.1l0.1-0.1c0.1-0.1,0.3-0.3,0.3-0.5l0,0c0.1-0.2,0.1-0.4,0.1-0.7c0,0,0,0,0-0.1s0,0,0-0.1
	s0-0.1,0-0.1c-0.1-0.9-0.1-1.8,0-2.7c0.1-0.6-0.2-1.3-0.7-1.7L122.3,117.5z M99.1,126.1c0.2-0.5,0.6-0.8,1.1-1c1-0.2,2,0.3,2.3,1.3
	s-0.2,2-1.1,2.4c-1,0.3-2.1-0.2-2.4-1.2C98.8,127.1,98.8,126.6,99.1,126.1z"/>
<path class="st2" d="M137.1,169.1h3.8v3.8h-3.8V169.1z"/>
<path class="st2" d="M137.1,176.8h3.8v3.8h-3.8V176.8z"/>
<path class="st2" d="M148.6,146.2h3.8v3.8h-3.8V146.2z"/>
<path class="st2" d="M156.3,146.2h3.8v3.8h-3.8V146.2z"/>
<path class="st2" d="M173.5,111.7h3.8v7.7h-3.8V111.7z"/>
<path class="st2" d="M173.5,123.2h3.8v3.8h-3.8V123.2z"/>
<path class="st2" d="M173.5,130.9h3.8v3.8h-3.8V130.9z"/>
</svg>
