<?xml version="1.0" encoding="utf-8"?>
<!-- Generator: Adobe Illustrator 25.2.1, SVG Export Plug-In . SVG Version: 6.00 Build 0)  -->
<svg version="1.1" id="레이어_1" xmlns="http://www.w3.org/2000/svg" xmlns:xlink="http://www.w3.org/1999/xlink" x="0px"
	 y="0px" viewBox="0 0 512 512" style="enable-background:new 0 0 512 512;" xml:space="preserve">
<style type="text/css">
	.st0{fill:#482428;}
</style>
<path class="st0" d="M90.1,395.9c-7.2,0-14.1,1.8-20.2,5.1C37.7,359.8,20,308.5,20,256C20,125.9,125.9,20,256,20
	c15.8,0,31.6,1.6,47,4.7c5.4,1.1,10.7-2.4,11.8-7.8S312.4,6.2,307,5.1C290.3,1.7,273.1,0,256,0C187.6,0,123.3,26.6,75,75
	S0,187.6,0,256c0,57.5,19.5,113.7,55.1,158.7c-4.6,6.8-7,14.9-7,23.3c0,11.2,4.4,21.8,12.3,29.7c7.9,7.9,18.5,12.3,29.7,12.3
	s21.8-4.4,29.7-12.3c7.9-7.9,12.3-18.5,12.3-29.7c0-11.2-4.4-21.8-12.3-29.7C111.8,400.3,101.3,395.9,90.1,395.9z M105.6,453.5
	c-4.2,4.2-9.7,6.4-15.6,6.4s-11.4-2.3-15.6-6.4s-6.4-9.7-6.4-15.6c0-5.9,2.3-11.4,6.4-15.6c4.2-4.2,9.7-6.4,15.6-6.4
	s11.4,2.3,15.6,6.4c4.2,4.2,6.4,9.7,6.4,15.6C112.1,443.8,109.8,449.3,105.6,453.5z"/>
<path class="st0" d="M456.9,97.3c10.9-16.3,9.1-38.6-5.3-53c-7.9-7.9-18.5-12.3-29.7-12.3s-21.8,4.4-29.7,12.3
	c-7.9,7.9-12.3,18.5-12.3,29.7s4.4,21.8,12.3,29.7s18.5,12.3,29.7,12.3c7.2,0,14.1-1.8,20.2-5.1C474.3,152.2,492,203.5,492,256
	c0,130.1-105.9,236-236,236c-15.7,0-31.3-1.5-46.6-4.6c-5.4-1.1-10.7,2.4-11.8,7.8c-1.1,5.4,2.4,10.7,7.8,11.8
	c16.5,3.3,33.5,5,50.5,5c68.4,0,132.7-26.6,181-75s75-112.6,75-181C512,198.5,492.5,142.3,456.9,97.3z M406.4,89.6
	c-4.2-4.2-6.4-9.7-6.4-15.6c0-5.9,2.3-11.4,6.4-15.6c4.2-4.2,9.7-6.4,15.6-6.4s11.4,2.3,15.6,6.4c8.6,8.6,8.6,22.5,0,31.1
	c-4.2,4.2-9.7,6.4-15.6,6.4C416.1,96.1,410.5,93.8,406.4,89.6z"/>
<path class="st0" d="M214.7,428c0,5.5,4.5,10,10,10h62.5c5.5,0,10-4.5,10-10v-19.4c13.1-3.5,25.7-8.8,37.5-15.6l13.7,13.7
	c1.9,1.9,4.4,2.9,7.1,2.9c2.6,0,5.2-1.1,7.1-2.9l44.2-44.2c3.9-3.9,3.9-10.2,0-14.1l-13.7-13.7c6.8-11.8,12-24.4,15.6-37.5H428
	c5.5,0,10-4.5,10-10v-62.5c0-5.5-4.5-10-10-10h-19.3c-3.5-13.1-8.7-25.7-15.6-37.5l13.6-13.6c1.9-1.9,2.9-4.4,2.9-7.1
	c0-2.7-1.1-5.2-2.9-7.1l-44.2-44.2c-3.9-3.9-10.2-3.9-14.1,0l-13.6,13.6c-11.8-6.8-24.4-12-37.5-15.6V84c0-5.5-4.5-10-10-10h-62.5
	c-5.5,0-10,4.5-10,10v19.2c-13.1,3.5-25.7,8.7-37.5,15.6l-13.6-13.6c-3.9-3.9-10.2-3.9-14.1,0l-44.2,44.2c-1.9,1.9-2.9,4.4-2.9,7.1
	s1.1,5.2,2.9,7.1l13.6,13.6c-6.8,11.8-12,24.4-15.6,37.5H84c-5.5,0-10,4.5-10,10l0,62.5c0,2.7,1.1,5.2,2.9,7.1s4.4,2.9,7.1,2.9h19.3
	c3.5,13.1,8.8,25.7,15.6,37.5l-13.7,13.7c-3.9,3.9-3.9,10.2,0,14.1l44.2,44.2c1.9,1.9,4.4,2.9,7.1,2.9h0c2.7,0,5.2-1.1,7.1-2.9
	l13.7-13.7c11.8,6.8,24.4,12,37.5,15.6V428z M181.1,372c-4-2.6-9.2-2-12.5,1.3l-12.2,12.2l-30.1-30.1l12.2-12.2
	c3.3-3.3,3.9-8.5,1.3-12.5c-9.1-14-15.4-29.4-18.9-45.7c-1-4.6-5.1-7.9-9.8-7.9H94l0-42.5h17.2c4.7,0,8.8-3.3,9.8-7.9
	c3.5-16.3,9.9-31.7,18.9-45.7c2.6-4,2-9.2-1.3-12.5l-12.1-12.1l30.1-30.1l12.1,12.1c3.3,3.3,8.5,3.9,12.5,1.3
	c14-9.1,29.4-15.4,45.7-18.9c4.6-1,7.9-5.1,7.9-9.8V94h42.5v17.1c0,4.7,3.3,8.8,7.9,9.8c16.3,3.5,31.7,9.9,45.7,18.9
	c4,2.6,9.2,2,12.5-1.3l12.1-12.1l30.1,30.1l-12.1,12.1c-3.3,3.3-3.9,8.5-1.3,12.5c9.1,14,15.4,29.4,18.9,45.7c1,4.6,5.1,7.9,9.8,7.9
	H418v42.5h-17.2c-4.7,0-8.8,3.3-9.8,7.9c-3.5,16.3-9.9,31.7-18.9,45.7c-2.6,4-2,9.2,1.3,12.5l12.2,12.2l-30.1,30.1l-12.2-12.2
	c-3.3-3.3-8.5-3.9-12.5-1.3c-14,9.1-29.4,15.4-45.7,18.9c-4.6,1-7.9,5.1-7.9,9.8V418h-42.5v-17.3c0-4.7-3.3-8.8-7.9-9.8
	C210.5,387.5,195.2,381.1,181.1,372z"/>
<path class="st0" d="M338.6,256c0-45.6-37.1-82.6-82.6-82.6s-82.6,37.1-82.6,82.6s37.1,82.6,82.6,82.6S338.6,301.6,338.6,256z
	 M193.4,256c0-34.5,28.1-62.6,62.6-62.6s62.6,28.1,62.6,62.6s-28.1,62.6-62.6,62.6S193.4,290.5,193.4,256z"/>
<path class="st0" d="M348.1,37.8c2.6,0,5.2-1.1,7.1-2.9c1.9-1.9,2.9-4.4,2.9-7.1c0-2.6-1.1-5.2-2.9-7.1c-1.9-1.9-4.4-2.9-7.1-2.9
	c-2.6,0-5.2,1.1-7.1,2.9c-1.9,1.9-2.9,4.4-2.9,7.1c0,2.6,1.1,5.2,2.9,7.1C342.9,36.8,345.4,37.8,348.1,37.8z"/>
<path class="st0" d="M164.4,474.4c-2.6,0-5.2,1.1-7.1,2.9s-2.9,4.4-2.9,7.1c0,2.6,1.1,5.2,2.9,7.1s4.4,2.9,7.1,2.9s5.2-1.1,7.1-2.9
	s2.9-4.4,2.9-7.1s-1.1-5.2-2.9-7.1S167,474.4,164.4,474.4z"/>
</svg>
