<?xml version="1.0" encoding="utf-8"?>
<!-- Generator: Adobe Illustrator 25.2.1, SVG Export Plug-In . SVG Version: 6.00 Build 0)  -->
<svg version="1.1" id="레이어_1" xmlns="http://www.w3.org/2000/svg" xmlns:xlink="http://www.w3.org/1999/xlink" x="0px"
	 y="0px" viewBox="0 0 300 400" style="enable-background:new 0 0 300 400;" xml:space="preserve">
<style type="text/css">
	.st0{fill:#FFFFFF;stroke:#000000;stroke-miterlimit:10;}
	.st1{fill:#482327;}
	.st2{fill:none;stroke:#000000;stroke-miterlimit:10;}
</style>
<rect y="1" class="st0" width="300" height="300"/>
<path class="st1" d="M114.7,181.2c-1.5,0-3,0.4-4.3,1.1c-6.9-8.9-10.7-19.9-10.7-31.2c0-28,22.8-50.7,50.7-50.7
	c3.4,0,6.8,0.3,10.1,1c1.2,0.2,2.3-0.5,2.5-1.7s-0.5-2.3-1.7-2.5c-3.6-0.7-7.3-1.1-11-1.1c-14.7,0-28.5,5.7-38.9,16.1
	s-16.1,24.2-16.1,38.9c0,12.4,4.2,24.4,11.8,34.1c-1,1.5-1.5,3.2-1.5,5c0,2.4,0.9,4.7,2.6,6.4s4,2.6,6.4,2.6s4.7-0.9,6.4-2.6
	c1.7-1.7,2.6-4,2.6-6.4s-0.9-4.7-2.6-6.4C119.4,182.1,117.1,181.2,114.7,181.2z M118,193.6c-0.9,0.9-2.1,1.4-3.4,1.4
	s-2.4-0.5-3.4-1.4s-1.4-2.1-1.4-3.4s0.5-2.4,1.4-3.4c0.9-0.9,2.1-1.4,3.4-1.4s2.4,0.5,3.4,1.4c0.9,0.9,1.4,2.1,1.4,3.4
	S119,192.6,118,193.6z"/>
<path class="st1" d="M193.5,117c2.3-3.5,2-8.3-1.1-11.4c-1.7-1.7-4-2.6-6.4-2.6s-4.7,0.9-6.4,2.6s-2.6,4-2.6,6.4s0.9,4.7,2.6,6.4
	c1.7,1.7,4,2.6,6.4,2.6c1.5,0,3-0.4,4.3-1.1c6.9,8.9,10.7,19.9,10.7,31.2c0,28-22.8,50.7-50.7,50.7c-3.4,0-6.7-0.3-10-1
	c-1.2-0.2-2.3,0.5-2.5,1.7s0.5,2.3,1.7,2.5c3.5,0.7,7.2,1.1,10.9,1.1c14.7,0,28.5-5.7,38.9-16.1c10.4-10.4,16.1-24.2,16.1-38.9
	C205.4,138.8,201.2,126.7,193.5,117z M182.7,115.4c-0.9-0.9-1.4-2.1-1.4-3.4s0.5-2.4,1.4-3.4c0.9-0.9,2.1-1.4,3.4-1.4
	s2.4,0.5,3.4,1.4c1.8,1.8,1.8,4.8,0,6.7c-0.9,0.9-2.1,1.4-3.4,1.4C184.8,116.8,183.6,116.3,182.7,115.4z"/>
<path class="st1" d="M141.5,188.1c0,1.2,1,2.1,2.1,2.1H157c1.2,0,2.1-1,2.1-2.1v-4.2c2.8-0.8,5.5-1.9,8.1-3.4l2.9,2.9
	c0.4,0.4,0.9,0.6,1.5,0.6s1.1-0.2,1.5-0.6l9.5-9.5c0.8-0.8,0.8-2.2,0-3l-2.9-2.9c1.5-2.5,2.6-5.2,3.4-8.1h4.1c1.2,0,2.1-1,2.1-2.1
	v-13.4c0-1.2-1-2.1-2.1-2.1h-4.1c-0.8-2.8-1.9-5.5-3.4-8.1l2.9-2.9c0.4-0.4,0.6-0.9,0.6-1.5s-0.2-1.1-0.6-1.5l-9.5-9.5
	c-0.8-0.8-2.2-0.8-3,0l-2.9,2.9c-2.5-1.5-5.2-2.6-8.1-3.4v-4.1c0-1.2-1-2.1-2.1-2.1h-13.4c-1.2,0-2.1,1-2.1,2.1v4.1
	c-2.8,0.8-5.5,1.9-8.1,3.4l-2.9-2.9c-0.8-0.8-2.2-0.8-3,0l-9.5,9.5c-0.4,0.4-0.6,0.9-0.6,1.5s0.2,1.1,0.6,1.5l2.9,2.9
	c-1.5,2.5-2.6,5.2-3.4,8.1h-4.2c-1.2,0-2.1,1-2.1,2.1v13.4c0,0.6,0.2,1.1,0.6,1.5s0.9,0.6,1.5,0.6h4.1c0.8,2.8,1.9,5.5,3.4,8.1
	l-2.8,3c-0.8,0.8-0.8,2.2,0,3l9.5,9.5c0.4,0.4,0.9,0.6,1.5,0.6l0,0c0.6,0,1.1-0.2,1.5-0.6l2.9-2.9c2.5,1.5,5.2,2.6,8.1,3.4V188.1
	L141.5,188.1z M134.3,176c-0.9-0.6-2-0.4-2.7,0.3l-2.6,2.6l-6.5-6.5l2.6-2.6c0.7-0.7,0.8-1.8,0.3-2.7c-2-3-3.3-6.3-4.1-9.8
	c-0.2-1-1.1-1.7-2.1-1.7h-3.7v-9.1h3.7c1,0,1.9-0.7,2.1-1.7c0.8-3.5,2.1-6.8,4.1-9.8c0.6-0.9,0.4-2-0.3-2.7l-2.6-2.6l6.5-6.5
	l2.6,2.6c0.7,0.7,1.8,0.8,2.7,0.3c3-2,6.3-3.3,9.8-4.1c1-0.2,1.7-1.1,1.7-2.1v-3.7h9.1v3.7c0,1,0.7,1.9,1.7,2.1
	c3.5,0.8,6.8,2.1,9.8,4.1c0.9,0.6,2,0.4,2.7-0.3l2.6-2.6l6.5,6.5l-2.6,2.6c-0.7,0.7-0.8,1.8-0.3,2.7c2,3,3.3,6.3,4.1,9.8
	c0.2,1,1.1,1.7,2.1,1.7h3.7v9.1h-3.7c-1,0-1.9,0.7-2.1,1.7c-0.8,3.5-2.1,6.8-4.1,9.8c-0.6,0.9-0.4,2,0.3,2.7l2.6,2.6l-6.5,6.5
	l-2.6-2.6c-0.7-0.7-1.8-0.8-2.7-0.3c-3,2-6.3,3.3-9.8,4.1c-1,0.2-1.7,1.1-1.7,2.1v3.7h-9.1v-3.7c0-1-0.7-1.9-1.7-2.1
	C140.6,179.4,137.3,178,134.3,176z"/>
<path class="st1" d="M168.1,151.1c0-9.8-8-17.7-17.7-17.7s-17.7,8-17.7,17.7s8,17.7,17.7,17.7S168.1,160.9,168.1,151.1z
	 M136.9,151.1c0-7.4,6-13.5,13.5-13.5c7.4,0,13.5,6,13.5,13.5s-6,13.5-13.5,13.5C143,164.6,136.9,158.5,136.9,151.1z"/>
<path class="st1" d="M170.2,104.2c0.6,0,1.1-0.2,1.5-0.6s0.6-0.9,0.6-1.5s-0.2-1.1-0.6-1.5c-0.4-0.4-0.9-0.6-1.5-0.6
	s-1.1,0.2-1.5,0.6s-0.6,0.9-0.6,1.5s0.2,1.1,0.6,1.5C169,104,169.6,104.2,170.2,104.2z"/>
<path class="st1" d="M130.7,198c-0.6,0-1.1,0.2-1.5,0.6c-0.4,0.4-0.6,0.9-0.6,1.5s0.2,1.1,0.6,1.5s0.9,0.6,1.5,0.6s1.1-0.2,1.5-0.6
	c0.4-0.4,0.6-0.9,0.6-1.5s-0.2-1.1-0.6-1.5C131.8,198.3,131.2,198,130.7,198z"/>
<line class="st2" x1="150.4" y1="277.8" x2="150.4" y2="377.8"/>
<circle class="st2" cx="150.4" cy="381.4" r="3"/>
</svg>
