<?xml version="1.0" encoding="utf-8"?>
<!-- Generator: Adobe Illustrator 25.2.1, SVG Export Plug-In . SVG Version: 6.00 Build 0)  -->
<svg version="1.1" id="레이어_1" xmlns="http://www.w3.org/2000/svg" xmlns:xlink="http://www.w3.org/1999/xlink" x="0px"
	 y="0px" viewBox="0 0 300 400" style="enable-background:new 0 0 300 400;" xml:space="preserve">
<style type="text/css">
	.st0{fill:#FFFFFF;stroke:#000000;stroke-miterlimit:10;}
	.st1{fill:none;stroke:#000000;stroke-miterlimit:10;}
	.st2{fill:#482327;}
</style>
<rect y="1" class="st0" width="300" height="300"/>
<line class="st1" x1="150.4" y1="277.8" x2="150.4" y2="377.8"/>
<circle class="st1" cx="150.4" cy="381.4" r="3"/>
<g>
	<path class="st2" d="M177.1,181.1l-16.7-2.5l-0.7-3.6c7.6-2.6,13.9-8.1,17.4-15.2c8.1-2.5,13.8-10.1,13.8-18.6
		c0-2.9-0.6-5.7-1.8-8.2c1.2-2.4,1.8-5,1.8-7.8c0-8.6-6.1-15.8-14.3-17.4c-0.7-7.1-6.8-12.7-14.1-12.7h-24.8
		c-7.3,0-13.4,5.6-14.1,12.8c-8.1,1.6-14.3,8.8-14.3,17.4c0,2.7,0.6,5.3,1.8,7.8c-1.2,2.5-1.8,5.3-1.8,8.2c0,4.1,1.2,8,3.6,11.3
		c0.1,0.9,0.4,1.9,0.8,2.7c-1.6,1.3-2.7,3.3-2.7,5.5c0,3.9,3.2,7.1,7.1,7.1c1.3,0,2.5-0.4,3.5-1c1.1,0.6,2.3,1,3.6,1
		c1,0,2-0.2,2.9-0.6c3.4,3.6,7.6,6.4,12.3,7.9l-0.7,3.6l-16.7,2.5c-11,1.7-19.1,11-19.1,22.1v1.8h92.3v-1.8
		C196.1,192.1,188.1,182.8,177.1,181.1z M163.5,182.7l-9,10.5l-2.2-2.6l7.3-8.6L163.5,182.7z M112.7,125.2c0-7.8,6.4-14.2,14.2-14.2
		h10.5v-3.5H127c0.8-5,5.2-8.9,10.5-8.9h24.8c5.2,0,9.6,3.8,10.5,8.9h-10.4v3.5h10.5c7.8,0,14.2,6.4,14.2,14.2c0,1.4-0.2,2.7-0.6,4
		c-0.5-0.7-1.1-1.3-1.7-2l-2.5,2.5c3.1,3,4.8,7.1,4.8,11.4c0,6-3.3,11.3-8.4,14.1c0.8-2.8,1.3-5.7,1.3-8.7v-10.8
		c0-4.8-3.9-8.7-8.7-8.7c-14,0-27.5-2.9-40.2-8.7l-0.9-0.4l-0.8,0.5c-6,3.6-9.7,10.2-9.7,17.2v9.2l0,0c-2.4,0-4.4,1.2-5.7,2.9
		c-0.9-2-1.4-4.2-1.4-6.5c0-4.3,1.7-8.4,4.8-11.4l-2.5-2.5c-0.6,0.6-1.2,1.3-1.7,2C112.9,127.8,112.7,126.5,112.7,125.2L112.7,125.2
		z M114.5,160.6c0-2,1.6-3.5,3.5-3.5s3.5,1.6,3.5,3.5s-1.6,3.5-3.5,3.5S114.5,162.6,114.5,160.6z M124.2,164.1
		c0.6-1,0.9-2.2,0.9-3.4c0-3.9-3.2-7.1-7.1-7.1c-0.4,0-0.8,0-1.2,0.1c-0.4-0.6-0.6-1.2-0.6-1.9c0-2,1.6-3.5,3.5-3.5
		c1.2,0,2.3,0.6,3,1.7l0.9,1.4l1.5-0.8c0.6-0.3,1.1-0.5,1.7-0.5c2,0,3.5,1.6,3.5,3.5c0,1.2-0.6,2.3-1.7,3l-1.4,0.9l0.8,1.5
		c0.3,0.6,0.5,1.1,0.5,1.7c0,2-1.6,3.5-3.5,3.5C124.8,164.2,124.5,164.1,124.2,164.1L124.2,164.1z M130.8,164.9
		c0.9-1.2,1.4-2.6,1.4-4.2c0-0.7-0.1-1.4-0.3-2.1c1.3-1.3,2.1-3.1,2.1-5c0-3.9-3.2-7.1-7.1-7.1c-0.7,0-1.4,0.1-2.1,0.3
		c-0.4-0.5-0.9-0.8-1.5-1.1v-10.2c0-5.5,2.8-10.6,7.2-13.7c12.9,5.7,26.6,8.6,40.8,8.6c2.9,0,5.2,2.3,5.2,5.2v10.8
		c0,14.7-11.9,26.6-26.6,26.6C142.7,173.1,135.8,170.1,130.8,164.9L130.8,164.9z M150,176.6c2.1,0,4.2-0.2,6.2-0.6l0.8,3.7l-7,8.2
		l-7-8.2l0.8-3.7C145.8,176.4,147.9,176.6,150,176.6z M140.4,182.1l16.4,19.4h-4.3l-16.1-18.8L140.4,182.1z M123.4,184.6l8.9-1.3
		l15.6,18.2h-26.3v-10.6h-3.5v10.6h-10.6C108.3,192.9,114.8,185.9,123.4,184.6L123.4,184.6z M181.9,201.5v-10.6h-3.5v10.6h-16.9
		l-4.7-5.5l10.8-12.7l8.9,1.3c8.7,1.3,15.2,8.2,16,16.8L181.9,201.5L181.9,201.5z"/>
	<path class="st2" d="M164.2,142.9c4.9,0,8.9-3.2,8.9-7.1h-3.5c0,1.9-2.4,3.5-5.3,3.5s-5.3-1.6-5.3-3.5h-3.5
		C155.3,139.7,159.3,142.9,164.2,142.9z"/>
	<path class="st2" d="M135.8,139.4c-2.9,0-5.3-1.6-5.3-3.5H127c0,3.9,4,7.1,8.9,7.1s8.9-3.2,8.9-7.1h-3.5
		C141.1,137.7,138.7,139.4,135.8,139.4z"/>
	<path class="st2" d="M105.6,142.9c0-2.9-2.4-5.3-5.3-5.3S95,140,95,142.9s2.4,5.3,5.3,5.3S105.6,145.8,105.6,142.9z M98.5,142.9
		c0-1,0.8-1.8,1.8-1.8s1.8,0.8,1.8,1.8s-0.8,1.8-1.8,1.8S98.5,143.9,98.5,142.9z"/>
	<path class="st2" d="M107.4,162.4c0-2.9-2.4-5.3-5.3-5.3s-5.3,2.4-5.3,5.3s2.4,5.3,5.3,5.3S107.4,165.4,107.4,162.4z M102.1,164.2
		c-1,0-1.8-0.8-1.8-1.8s0.8-1.8,1.8-1.8s1.8,0.8,1.8,1.8S103.1,164.2,102.1,164.2z"/>
	<path class="st2" d="M180.2,173.1c0,2.9,2.4,5.3,5.3,5.3s5.3-2.4,5.3-5.3s-2.4-5.3-5.3-5.3C182.5,167.7,180.2,170.1,180.2,173.1z
		 M185.5,171.3c1,0,1.8,0.8,1.8,1.8s-0.8,1.8-1.8,1.8s-1.8-0.8-1.8-1.8S184.5,171.3,185.5,171.3z"/>
	<path class="st2" d="M199.7,139.4c2.9,0,5.3-2.4,5.3-5.3s-2.4-5.3-5.3-5.3s-5.3,2.4-5.3,5.3S196.8,139.4,199.7,139.4z M199.7,132.3
		c1,0,1.8,0.8,1.8,1.8s-0.8,1.8-1.8,1.8s-1.8-0.8-1.8-1.8C197.9,133,198.7,132.3,199.7,132.3z"/>
	<path class="st2" d="M197.9,150h-3.5c0,3.9-3.2,7.1-7.1,7.1v3.5c3.9,0,7.1,3.2,7.1,7.1h3.5c0-3.9,3.2-7.1,7.1-7.1v-3.5
		C201.1,157.1,197.9,153.9,197.9,150z M196.1,161.9c-0.8-1.2-1.8-2.2-3-3c1.2-0.8,2.2-1.8,3-3c0.8,1.2,1.8,2.2,3,3
		C197.9,159.7,196.9,160.7,196.1,161.9z"/>
</g>
</svg>
