<?xml version="1.0" encoding="utf-8"?>
<!-- Generator: Adobe Illustrator 25.2.1, SVG Export Plug-In . SVG Version: 6.00 Build 0)  -->
<svg version="1.1" id="레이어_1" xmlns="http://www.w3.org/2000/svg" xmlns:xlink="http://www.w3.org/1999/xlink" x="0px"
	 y="0px" viewBox="0 0 300 400" style="enable-background:new 0 0 300 400;" xml:space="preserve">
<style type="text/css">
	.st0{fill:#FFFFFF;stroke:#000000;stroke-miterlimit:10;}
	.st1{fill:none;stroke:#000000;stroke-miterlimit:10;}
	.st2{fill:#482327;}
</style>
<rect y="1" class="st0" width="300" height="300"/>
<line class="st1" x1="150.4" y1="277.8" x2="150.4" y2="377.8"/>
<circle class="st1" cx="150.4" cy="381.4" r="3"/>
<path class="st2" d="M205.2,128.1c0-18.2-14.8-33-33-33s-33,14.8-33,33c0,2.8,0.4,5.5,1.1,8.1l-3.3,2.2c-0.9-0.7-2-1.1-3.3-1.1
	s-2.4,0.4-3.3,1.1l-7.9-5.3c0.1-0.4,0.2-0.9,0.2-1.3c0-3-2.5-5.5-5.5-5.5s-5.5,2.5-5.5,5.5c0,0.5,0.1,0.9,0.2,1.3l-7.9,5.3
	c-0.9-0.7-2-1.1-3.3-1.1c-3,0-5.5,2.5-5.5,5.5s2.5,5.5,5.5,5.5s5.5-2.5,5.5-5.5c0-0.5-0.1-0.9-0.2-1.3l7.9-5.3
	c0.9,0.7,2,1.1,3.3,1.1c1.2,0,2.4-0.4,3.3-1.1l7.9,5.3c-0.1,0.4-0.2,0.9-0.2,1.3c0,3,2.5,5.5,5.5,5.5s5.5-2.5,5.5-5.5
	c0-0.5-0.1-0.9-0.2-1.3l2.4-1.6c4.1,10.7,13.7,18.8,25.3,20.8v7.8h-1.8c-1,0-1.8,0.8-1.8,1.8V196c0,5,4.1,9.2,9.2,9.2
	s9.2-4.1,9.2-9.2v-25.7c0-1-0.8-1.8-1.8-1.8h-1.9v-7.8C193.3,158,205.2,144.4,205.2,128.1L205.2,128.1z M100.7,144.6
	c-1,0-1.8-0.8-1.8-1.8s0.8-1.8,1.8-1.8s1.8,0.8,1.8,1.8S101.7,144.6,100.7,144.6z M117.2,133.6c-1,0-1.8-0.8-1.8-1.8
	s0.8-1.8,1.8-1.8s1.8,0.8,1.8,1.8S118.2,133.6,117.2,133.6z M133.7,144.6c-1,0-1.8-0.8-1.8-1.8s0.8-1.8,1.8-1.8s1.8,0.8,1.8,1.8
	S134.7,144.6,133.7,144.6z M144.5,137.8l2.4-1.6c0.9,0.7,2,1.1,3.3,1.1c1.2,0,2.4-0.4,3.3-1.1l7.9,5.3c-0.1,0.4-0.2,0.9-0.2,1.3
	c0,3,2.5,5.5,5.5,5.5s5.5-2.5,5.5-5.5c0-0.8-0.2-1.6-0.6-2.4l15.2-15.2v8.4h3.7v-12.8c0-1-0.8-1.8-1.8-1.8h-12.8v3.7h8.4L169,137.8
	c-0.7-0.3-1.5-0.6-2.4-0.6c-1.2,0-2.4,0.4-3.3,1.1l-7.9-5.3c0.1-0.4,0.2-0.9,0.2-1.3c0-3-2.5-5.5-5.5-5.5s-5.5,2.5-5.5,5.5
	c0,0.5,0.1,0.9,0.2,1.3l-1.4,0.9c-0.4-1.9-0.6-3.9-0.6-6c0-16.2,13.2-29.3,29.3-29.3s29.3,13.2,29.3,29.3s-13.2,29.3-29.3,29.3
	C159.4,157.4,148.5,149.2,144.5,137.8z M148.4,131.8c0-1,0.8-1.8,1.8-1.8s1.8,0.8,1.8,1.8s-0.8,1.8-1.8,1.8S148.4,132.8,148.4,131.8
	z M168.5,142.8c0,1-0.8,1.8-1.8,1.8s-1.8-0.8-1.8-1.8s0.8-1.8,1.8-1.8C167.7,140.9,168.5,141.8,168.5,142.8z M177.7,195.9
	c0,3-2.5,5.5-5.5,5.5s-5.5-2.5-5.5-5.5v-23.8h11V195.9z M174,168.4h-3.7V161c0.6,0,1.2,0.1,1.8,0.1s1.2-0.1,1.8-0.1L174,168.4
	L174,168.4z"/>
<path class="st2" d="M152.7,138.3l-3.2,1.7c2.1,4,5.2,7.4,9.1,9.9l2-3.1C157.2,144.7,154.5,141.7,152.7,138.3z"/>
<path class="st2" d="M197.9,128.1c0-14.2-11.5-25.7-25.7-25.7c-12,0-22.2,8.1-25,19.7l3.6,0.8c2.3-10,11.2-16.9,21.4-16.9
	c12.1,0,22,9.9,22,22s-9.9,22-22,22c-1.1,0-2.3-0.1-3.4-0.3l-0.6,3.6c1.3,0.2,2.6,0.3,4,0.3C186.3,153.8,197.9,142.3,197.9,128.1z"
	/>
<path class="st2" d="M95.2,95.1h11v3.7h-11V95.1z"/>
<path class="st2" d="M109.9,95.1h25.7v3.7h-25.7C109.9,98.8,109.9,95.1,109.9,95.1z"/>
<path class="st2" d="M95.2,102.4H119v3.7H95.2V102.4z"/>
<path class="st2" d="M122.7,102.4h12.8v3.7h-12.8V102.4z"/>
<path class="st2" d="M95.2,109.8h3.7v3.7h-3.7V109.8z"/>
<path class="st2" d="M102.5,109.8h11v3.7h-11V109.8z"/>
<path class="st2" d="M117.2,109.8h18.3v3.7h-18.3V109.8z"/>
<path class="st2" d="M95.2,117.1H108v3.7H95.2V117.1z"/>
<path class="st2" d="M111.7,117.1h23.8v3.7h-23.8V117.1z"/>
<path class="st2" d="M157.5,183.1c0-1-0.8-1.8-1.8-1.8h-9.2V174c0-1-0.8-1.8-1.8-1.8h-9.2v-7.3c0-1-0.8-1.8-1.8-1.8h-9.2v-7.3
	c0-1-0.8-1.8-1.8-1.8h-11c-1,0-1.8,0.8-1.8,1.8v16.5h-9.2c-1,0-1.8,0.8-1.8,1.8v27.5h-3.7v3.6h66v-3.7h-3.7V183.1z M102.5,175.8h7.3
	v25.7h-7.3V175.8z M113.5,173.9v-16.5h7.3v7.3v36.7h-7.3V173.9z M124.5,166.6h7.3v7.3v27.5h-7.3V166.6z M135.5,175.8h7.3v7.3v18.3
	h-7.3V175.8L135.5,175.8z M146.5,201.4v-16.5h7.3v16.5H146.5L146.5,201.4z"/>
</svg>
