<?xml version="1.0" encoding="utf-8"?>
<!-- Generator: Adobe Illustrator 25.2.1, SVG Export Plug-In . SVG Version: 6.00 Build 0)  -->
<svg version="1.1" id="Layer_5" xmlns="http://www.w3.org/2000/svg" xmlns:xlink="http://www.w3.org/1999/xlink" x="0px" y="0px"
	 viewBox="0 0 512 512" style="enable-background:new 0 0 512 512;" xml:space="preserve">
<style type="text/css">
	.st0{fill:#482428;}
</style>
<g>
	<path class="st0" d="M382,400.7l-77.8-11.7l-3.3-16.7c35.4-12,64.5-37.7,80.9-70.9c37.9-11.6,64.2-46.8,64.2-86.8
		c0-13.5-3-26.4-8.5-38.2c5.5-11.2,8.5-23.5,8.5-36.1c0-40-28.6-73.4-66.4-81C376.2,26.1,348,0,313.8,0H198.2
		c-34.2,0-62.4,26.1-65.7,59.4c-37.8,7.5-66.4,41-66.4,81c0,12.5,3,24.8,8.5,36.1c-5.5,11.8-8.5,24.8-8.5,38.2
		c0,19.1,5.8,37.2,16.8,52.6c0.4,4.4,1.7,8.7,3.9,12.6c-7.5,6.1-12.5,15.2-12.5,25.6c0,18.2,14.8,33,33,33c6,0,11.6-1.7,16.4-4.5
		c5,2.9,10.7,4.5,16.6,4.5c4.8,0,9.4-1.1,13.6-3c15.9,16.9,35.5,29.6,57.1,36.9l-3.3,16.6L130,400.7c-51.4,7.7-88.7,51-88.7,103v8.3
		h429.4v-8.3C470.7,451.8,433.4,408.5,382,400.7z M319,408l-42.1,49.1l-10.1-11.9l33.8-39.9L319,408z M82.6,140.4
		c0-36.4,29.6-66.1,66.1-66.1h49.1V57.8h-48.4c3.9-23.4,24.3-41.3,48.8-41.3h115.6c24.4,0,44.7,17.7,48.8,41.3h-48.3v16.5h49.1
		c36.4,0,66.1,29.6,66.1,66.1c0,6.3-1,12.5-2.7,18.5c-2.5-3.2-5.1-6.2-8-9.1l-11.6,11.8c14.4,14.1,22.3,32.9,22.3,53.1
		c0,27.8-15.4,52.7-39.1,65.4c3.9-12.9,6.1-26.5,6.1-40.7v-50.2c0-22.4-18.2-40.6-40.6-40.6c-65,0-128-13.6-187.2-40.5l-4-1.8
		l-3.7,2.2c-27.9,16.8-45.3,47.4-45.3,80l0,42.7h0c-11,0-20.6,5.4-26.6,13.7c-4.2-9.4-6.4-19.6-6.4-30.2c0-20.1,7.9-39,22.3-53.1
		l-11.6-11.8c-2.9,2.9-5.5,5.9-8,9.1C83.5,152.9,82.6,146.7,82.6,140.4L82.6,140.4z M90.8,305.5c0-9.1,7.4-16.5,16.5-16.5
		s16.5,7.4,16.5,16.5c0,9.1-7.4,16.5-16.5,16.5S90.8,314.7,90.8,305.5z M136.1,321.4c2.6-4.7,4.3-10.1,4.3-15.9
		c0-18.2-14.8-33-33-33c-1.9,0-3.8,0.2-5.6,0.6c-1.7-2.6-2.7-5.6-2.7-8.8c0-9.1,7.4-16.5,16.5-16.5c5.7,0,10.8,2.9,13.9,7.7l4.2,6.7
		l6.8-3.9c2.6-1.5,5.3-2.2,8.1-2.2c9.1,0,16.5,7.4,16.5,16.5c0,5.7-2.9,10.8-7.7,13.9l-6.7,4.2l3.9,6.8c1.5,2.6,2.2,5.3,2.2,8.1
		c0,9.1-7.4,16.5-16.5,16.5C138.9,322.1,137.5,321.8,136.1,321.4L136.1,321.4z M166.8,325.2c4.1-5.5,6.6-12.3,6.6-19.6
		c0-3.3-0.5-6.5-1.5-9.7c6.2-6.1,9.8-14.5,9.8-23.4c0-18.2-14.8-33-33-33c-3.3,0-6.5,0.5-9.7,1.5c-2-2.1-4.4-3.7-6.9-5.2l0-47.3
		c0-25.4,12.8-49.4,33.7-63.6c60.2,26.7,124,40.2,189.9,40.2c13.3,0,24.1,10.8,24.1,24.1v50.2c0,68.3-55.6,123.9-123.9,123.9
		C222.2,363.4,190.1,349.4,166.8,325.2L166.8,325.2z M256,379.9c9.9,0,19.6-1.1,29-3l3.5,17.3L256,432.4l-32.4-38.3l3.5-17.3
		C236.5,378.8,246.2,379.9,256,379.9z M211.4,405.2l76.4,90.2H268L193,408L211.4,405.2z M132.4,417.1l41.3-6.2l72.5,84.6H123.9
		v-49.5h-16.5v49.5H58.2C61.9,455.5,92,423.2,132.4,417.1L132.4,417.1z M404.6,495.5v-49.5h-16.5v49.5h-78.7l-21.7-25.6l50.5-59
		l41.3,6.2c40.5,6.1,70.6,38.4,74.3,78.4H404.6z"/>
	<path class="st0" d="M322.1,223c22.8,0,41.3-14.8,41.3-33h-16.5c0,9-11.3,16.5-24.8,16.5s-24.8-7.6-24.8-16.5h-16.5
		C280.8,208.2,299.3,223,322.1,223z"/>
	<path class="st0" d="M189.9,206.5c-13.4,0-24.8-7.6-24.8-16.5h-16.5c0,18.2,18.5,33,41.3,33s41.3-14.8,41.3-33h-16.5
		C214.7,198.9,203.4,206.5,189.9,206.5z"/>
	<path class="st0" d="M49.5,223c0-13.7-11.1-24.8-24.8-24.8S0,209.3,0,223s11.1,24.8,24.8,24.8S49.5,236.6,49.5,223z M16.5,223
		c0-4.6,3.7-8.3,8.3-8.3s8.3,3.7,8.3,8.3s-3.7,8.3-8.3,8.3S16.5,227.5,16.5,223z"/>
	<path class="st0" d="M57.8,313.8c0-13.7-11.1-24.8-24.8-24.8S8.3,300.1,8.3,313.8c0,13.7,11.1,24.8,24.8,24.8
		S57.8,327.5,57.8,313.8z M33,322.1c-4.6,0-8.3-3.7-8.3-8.3s3.7-8.3,8.3-8.3s8.3,3.7,8.3,8.3S37.6,322.1,33,322.1z"/>
	<path class="st0" d="M396.4,363.4c0,13.7,11.1,24.8,24.8,24.8c13.7,0,24.8-11.1,24.8-24.8c0-13.7-11.1-24.8-24.8-24.8
		C407.5,338.6,396.4,349.7,396.4,363.4z M421.2,355.1c4.6,0,8.3,3.7,8.3,8.3c0,4.6-3.7,8.3-8.3,8.3s-8.3-3.7-8.3-8.3
		C412.9,358.8,416.6,355.1,421.2,355.1z"/>
	<path class="st0" d="M487.2,206.5c13.7,0,24.8-11.1,24.8-24.8c0-13.7-11.1-24.8-24.8-24.8c-13.7,0-24.8,11.1-24.8,24.8
		C462.5,195.3,473.6,206.5,487.2,206.5z M487.2,173.4c4.6,0,8.3,3.7,8.3,8.3c0,4.6-3.7,8.3-8.3,8.3s-8.3-3.7-8.3-8.3
		C479,177.1,482.7,173.4,487.2,173.4z"/>
	<path class="st0" d="M479,256h-16.5c0,18.2-14.8,33-33,33v16.5c18.2,0,33,14.8,33,33H479c0-18.2,14.8-33,33-33V289
		C493.8,289,479,274.2,479,256z M470.7,311.2c-3.7-5.5-8.4-10.3-14-14c5.5-3.7,10.3-8.4,14-14c3.7,5.5,8.4,10.3,14,14
		C479.1,301,474.4,305.7,470.7,311.2z"/>
</g>
</svg>
